<svg width="40" height="40" viewBox="0 0 40 40" fill="none" xmlns="http://www.w3.org/2000/svg">
<path fill-rule="evenodd" clip-rule="evenodd" d="M26 34C28.1217 34 30.1566 33.1571 31.6569 31.6569C33.1571 30.1566 34 28.1217 34 26C34 23.8783 33.1571 21.8434 31.6569 20.3431C30.1566 18.8429 28.1217 18 26 18C23.8783 18 21.8434 18.8429 20.3431 20.3431C18.8429 21.8434 18 23.8783 18 26C18 28.1217 18.8429 30.1566 20.3431 31.6569C21.8434 33.1571 23.8783 34 26 34V34ZM36 26C36 28.6522 34.9464 31.1957 33.0711 33.0711C31.1957 34.9464 28.6522 36 26 36C23.3478 36 20.8043 34.9464 18.9289 33.0711C17.0536 31.1957 16 28.6522 16 26C16 23.3478 17.0536 20.8043 18.9289 18.9289C20.8043 17.0536 23.3478 16 26 16C28.6522 16 31.1957 17.0536 33.0711 18.9289C34.9464 20.8043 36 23.3478 36 26V26Z" fill="#4F46BA" stroke="#4F46BA"/>
<path d="M22.735 27.3015V26.094H26.284C26.3365 26.094 26.403 26.0922 26.4835 26.0887C26.5675 26.0817 26.662 26.0625 26.767 26.031C27.0295 25.9505 27.215 25.8175 27.3235 25.632C27.4355 25.4465 27.4915 25.226 27.4915 24.9705C27.4915 24.8235 27.4705 24.6712 27.4285 24.5137C27.39 24.3562 27.3183 24.2162 27.2133 24.0938C27.1083 23.9677 26.9595 23.8785 26.767 23.826C26.6725 23.798 26.578 23.7822 26.4835 23.7787C26.389 23.7752 26.3225 23.7735 26.284 23.7735H24.373V22.44H26.347C26.375 22.44 26.4503 22.4417 26.5728 22.4452C26.6953 22.4487 26.83 22.461 26.977 22.482C27.4285 22.5485 27.7978 22.6972 28.0848 22.9282C28.3753 23.1557 28.5888 23.4427 28.7253 23.7892C28.8618 24.1357 28.93 24.5155 28.93 24.9285C28.93 25.569 28.769 26.094 28.447 26.5035C28.1285 26.913 27.6385 27.165 26.977 27.2595C26.83 27.2805 26.6953 27.2927 26.5728 27.2962C26.4503 27.2997 26.375 27.3015 26.347 27.3015H22.735ZM22.735 29.055V27.9525H27.355V29.055H22.735ZM23.47 30V22.44H24.898V30H23.47Z" fill="#4F46BA"/>
<path d="M6 4C5.46957 4 4.96086 4.21071 4.58579 4.58579C4.21071 4.96086 4 5.46957 4 6V22C4 22.5304 4.21071 23.0391 4.58579 23.4142C4.96086 23.7893 5.46957 24 6 24H14.166C14.282 23.312 14.456 22.644 14.682 22H10C10 20.9391 9.57857 19.9217 8.82843 19.1716C8.07828 18.4214 7.06087 18 6 18V10C7.06087 10 8.07828 9.57857 8.82843 8.82843C9.57857 8.07828 10 7.06087 10 6H30C30 7.06087 30.4214 8.07828 31.1716 8.82843C31.9217 9.57857 32.9391 10 34 10V17.056C34.76 17.736 35.434 18.512 36 19.364V6C36 5.46957 35.7893 4.96086 35.4142 4.58579C35.0391 4.21071 34.5304 4 34 4H6Z" fill="#4F46BA" stroke="#4F46BA"/>
<path d="M23.996 14.1656L24 13.9996C23.9996 13.3108 23.8213 12.6337 23.4824 12.034C23.1435 11.4343 22.6555 10.9323 22.0657 10.5766C21.4758 10.2209 20.8041 10.0235 20.1156 10.0036C19.427 9.98372 18.745 10.142 18.1356 10.463C17.5262 10.7841 17.01 11.2571 16.6371 11.8362C16.2641 12.4153 16.047 13.0809 16.0068 13.7685C15.9666 14.4562 16.1047 15.1426 16.4076 15.7612C16.7106 16.3798 17.1681 16.9097 17.736 17.2996C19.4635 15.6541 21.6435 14.5627 23.996 14.1656V14.1656Z" fill="#4F46BA"/>
</svg>
