<svg width="40" height="40" viewBox="0 0 40 40" fill="none" xmlns="http://www.w3.org/2000/svg">
<rect x="6" y="6" width="28" height="28" rx="4" stroke="#4F46BA" stroke-width="4"/>
<path d="M32.8002 32.8002V7.2002H7.2002V32.8002H32.8002ZM29.6002 12.0002H10.4002V10.4002H29.6002V12.0002ZM15.2002 15.2002V20.0002H20.0002C20.0002 22.6562 17.8562 24.8002 15.2002 24.8002C12.5442 24.8002 10.4002 22.6562 10.4002 20.0002C10.4002 17.3442 12.5442 15.2002 15.2002 15.2002ZM16.8002 18.4002V15.2002C18.5602 15.2002 20.0002 16.6402 20.0002 18.4002H16.8002ZM29.6002 16.8002H23.2002V15.2002H29.6002V16.8002ZM29.6002 21.6002H23.2002V18.4002H29.6002V21.6002ZM29.6002 24.8002H23.2002V23.2002H29.6002V24.8002ZM29.6002 29.6002H10.4002V28.0002H29.6002V29.6002Z" fill="#4F46BA"/>
</svg>
