<svg width="40" height="40" viewBox="0 0 40 40" fill="none" xmlns="http://www.w3.org/2000/svg">
<path d="M6 2C5.46957 2 4.96086 2.21071 4.58579 2.58579C4.21071 2.96086 4 3.46957 4 4C4 4.53043 4.21071 5.03914 4.58579 5.41421C4.96086 5.78929 5.46957 6 6 6H8.44L9.05 8.444C9.05606 8.47214 9.06273 8.50015 9.07 8.528L11.786 19.388L10 21.172C7.48 23.692 9.264 28 12.828 28H30C30.5304 28 31.0391 27.7893 31.4142 27.4142C31.7893 27.0391 32 26.5304 32 26C32 25.4696 31.7893 24.9609 31.4142 24.5858C31.0391 24.2107 30.5304 24 30 24H12.828L14.828 22H28C28.3713 21.9998 28.7353 21.8962 29.0511 21.7009C29.3668 21.5056 29.622 21.2262 29.788 20.894L35.788 8.894C35.9403 8.58916 36.0122 8.25045 35.9969 7.91001C35.9816 7.56957 35.8795 7.2387 35.7004 6.94879C35.5213 6.65888 35.271 6.41954 34.9735 6.25349C34.6759 6.08744 34.3408 6.00018 34 6H12.56L11.94 3.514C11.8317 3.08151 11.5819 2.69762 11.2304 2.42331C10.8789 2.149 10.4459 2.00001 10 2H6ZM32 33C32 33.7956 31.6839 34.5587 31.1213 35.1213C30.5587 35.6839 29.7956 36 29 36C28.2044 36 27.4413 35.6839 26.8787 35.1213C26.3161 34.5587 26 33.7956 26 33C26 32.2044 26.3161 31.4413 26.8787 30.8787C27.4413 30.3161 28.2044 30 29 30C29.7956 30 30.5587 30.3161 31.1213 30.8787C31.6839 31.4413 32 32.2044 32 33ZM13 36C13.7956 36 14.5587 35.6839 15.1213 35.1213C15.6839 34.5587 16 33.7956 16 33C16 32.2044 15.6839 31.4413 15.1213 30.8787C14.5587 30.3161 13.7956 30 13 30C12.2044 30 11.4413 30.3161 10.8787 30.8787C10.3161 31.4413 10 32.2044 10 33C10 33.7956 10.3161 34.5587 10.8787 35.1213C11.4413 35.6839 12.2044 36 13 36V36Z" fill="#4F46BA"/>
</svg>
