<svg width="40" height="40" viewBox="0 0 40 40" fill="none" xmlns="http://www.w3.org/2000/svg">
<path d="M34.9994 26.6668V6.66683H4.99935V26.6668H34.9994ZM34.9994 3.3335C35.8834 3.3335 36.7313 3.68469 37.3564 4.30981C37.9815 4.93493 38.3327 5.78277 38.3327 6.66683V26.6668C38.3327 27.5509 37.9815 28.3987 37.3564 29.0239C36.7313 29.649 35.8834 30.0002 34.9994 30.0002H23.3327V33.3335H26.666V36.6668H13.3327V33.3335H16.666V30.0002H4.99935C4.11529 30.0002 3.26745 29.649 2.64233 29.0239C2.01721 28.3987 1.66602 27.5509 1.66602 26.6668V6.66683C1.66602 4.81683 3.14935 3.3335 4.99935 3.3335H34.9994ZM8.33268 10.0002H23.3327V18.3335H8.33268V10.0002ZM24.9994 10.0002H31.666V13.3335H24.9994V10.0002ZM31.666 15.0002V23.3335H24.9994V15.0002H31.666ZM8.33268 20.0002H14.9993V23.3335H8.33268V20.0002ZM16.666 20.0002H23.3327V23.3335H16.666V20.0002Z" fill="white"/>
</svg>
