<svg width="40" height="40" viewBox="0 0 40 40" fill="none" xmlns="http://www.w3.org/2000/svg">
<path d="M5 0V5H0V8.33333H5V13.3333H8.33333V8.33333H13.3333V5H8.33333V0H5ZM15 5V10H10V15H5V31.6667C5 32.5507 5.35119 33.3986 5.97631 34.0237C6.60143 34.6488 7.44928 35 8.33333 35H31.6667C33.5167 35 35 33.5167 35 31.6667V30H20C19.1159 30 18.2681 29.6488 17.643 29.0237C17.0179 28.3986 16.6667 27.5507 16.6667 26.6667V13.3333C16.6667 12.4493 17.0179 11.6014 17.643 10.9763C18.2681 10.3512 19.1159 10 20 10H35V8.33333C35 7.44928 34.6488 6.60143 34.0237 5.97631C33.3986 5.35119 32.5507 5 31.6667 5H15ZM20 13.3333V26.6667H36.6667V13.3333H20ZM26.6667 17.5C28.05 17.5 29.1667 18.6167 29.1667 20C29.1667 21.3833 28.05 22.5 26.6667 22.5C25.2833 22.5 24.1667 21.3833 24.1667 20C24.1667 18.6167 25.2833 17.5 26.6667 17.5Z" fill="#4F46BA"/>
</svg>
