<svg width="40" height="40" viewBox="0 0 40 40" fill="none" xmlns="http://www.w3.org/2000/svg">
<path d="M15.0007 8.3335H11.6673C10.7833 8.3335 9.93542 8.68469 9.31029 9.30981C8.68517 9.93493 8.33398 10.7828 8.33398 11.6668V31.6668C8.33398 32.5509 8.68517 33.3987 9.31029 34.0239C9.93542 34.649 10.7833 35.0002 11.6673 35.0002H28.334C29.218 35.0002 30.0659 34.649 30.691 34.0239C31.3161 33.3987 31.6673 32.5509 31.6673 31.6668V11.6668C31.6673 10.7828 31.3161 9.93493 30.691 9.30981C30.0659 8.68469 29.218 8.3335 28.334 8.3335H25.0007" stroke="#4F46BA" stroke-width="3.33333" stroke-linecap="round" stroke-linejoin="round"/>
<path d="M21.6667 5H18.3333C16.4924 5 15 6.49238 15 8.33333C15 10.1743 16.4924 11.6667 18.3333 11.6667H21.6667C23.5076 11.6667 25 10.1743 25 8.33333C25 6.49238 23.5076 5 21.6667 5Z" stroke="#4F46BA" stroke-width="3.33333" stroke-linecap="round" stroke-linejoin="round"/>
<path d="M25 28.3333V23.3333M15 28.3333V20V28.3333ZM20 28.3333V26.6667V28.3333Z" stroke="#4F46BA" stroke-width="3.33333" stroke-linecap="round" stroke-linejoin="round"/>
</svg>
