<svg width="40" height="40" viewBox="0 0 40 40" fill="none" xmlns="http://www.w3.org/2000/svg">
<g clip-path="url(#clip0_209_64525)">
<path d="M10 10.9999V7.3999C10 6.35748 10.3353 5.33734 10.9653 4.46263C11.5954 3.58792 12.4932 2.89603 13.5506 2.47048C14.6079 2.04492 15.7795 1.90389 16.9239 2.06441C18.0684 2.22493 19.1367 2.68014 20 3.37509C20.8633 2.68014 21.9316 2.22493 23.0761 2.06441C24.2205 1.90389 25.3921 2.04492 26.4494 2.47048C27.5068 2.89603 28.4046 3.58792 29.0347 4.46263C29.6647 5.33734 30 6.35748 30 7.3999V10.9999H33C33.7956 10.9999 34.5587 11.2844 35.1213 11.7907C35.6839 12.2971 36 12.9838 36 13.6999V30.8C36.0005 32.0014 35.6668 33.1838 35.0292 34.2393C34.3917 35.2947 33.4706 36.1898 32.35 36.8426L31.26 36.6698C29.71 36.425 28.112 35.6564 26.91 34.5602C25.71 33.464 25 32.1374 25 30.8V10.9999H27V7.3999C27.0001 6.84412 26.8095 6.30186 26.4545 5.84715C26.0994 5.39243 25.597 5.04742 25.016 4.85919C24.435 4.67096 23.8035 4.6487 23.2079 4.79544C22.6123 4.94218 22.0815 5.25077 21.688 5.67909C21.89 6.2191 22 6.7987 22 7.3999V30.8C22 33.0122 23.164 34.9868 24.774 36.4556C25.4232 37.0459 26.1483 37.5644 26.934 38H12C9.87827 38 7.84344 37.2414 6.34315 35.8912C4.84285 34.5409 4 32.7095 4 30.8V13.6999C4 12.9838 4.31607 12.2971 4.87868 11.7907C5.44129 11.2844 6.20435 10.9999 7 10.9999H10ZM13 7.3999V10.9999H19V7.3999C19 6.68381 18.6839 5.99705 18.1213 5.4907C17.5587 4.98435 16.7956 4.69989 16 4.69989C15.2044 4.69989 14.4413 4.98435 13.8787 5.4907C13.3161 5.99705 13 6.68381 13 7.3999V7.3999Z" fill="#4F46BA"/>
<path d="M33.8513 39.2847L33.8511 39.2849C32.2227 40.913 29.5712 40.9054 27.9562 39.2597L20.6834 31.8592L33.8513 39.2847ZM33.8513 39.2847L39.2919 33.8397L33.8513 39.2847ZM31.8578 20.6924L31.8578 20.6924L39.267 27.9857L31.8578 20.6924ZM31.8578 20.6924C31.0807 19.9276 30.0339 19.4993 28.9435 19.5L28.9439 19.9667M31.8578 20.6924L28.9439 19.9667M28.9439 19.9667L28.9435 19.5L23.6394 19.5036M28.9439 19.9667L19.5 23.6314M19.5 23.6314V23.6304C19.5022 22.5344 19.9395 21.4841 20.7157 20.7103C21.4919 19.9367 22.5435 19.5027 23.6394 19.5036M19.5 23.6314V28.9695M19.5 23.6314V28.9695M23.6394 19.5036C23.6396 19.5036 23.6397 19.5036 23.6399 19.5036L23.6394 20.0036L23.639 19.5036L23.6394 19.5036ZM40.1893 32.4945C39.982 32.9976 39.6771 33.4547 39.2922 33.8394L40.1893 32.4945ZM40.1893 32.4945C40.3967 31.9912 40.5023 31.4518 40.5 30.9075M40.1893 32.4945L40.5 30.9075M40.5 30.9075C40.4977 30.3632 40.3875 29.8248 40.1759 29.3233M40.5 30.9075L40.1759 29.3233M40.1759 29.3233C39.9643 28.8219 39.6556 28.3675 39.2674 27.9861L40.1759 29.3233ZM19.5 28.9695C19.5 30.0491 19.924 31.0874 20.6832 31.859L19.5 28.9695ZM26.7642 25.4528C26.7643 25.6258 26.7303 25.7971 26.6641 25.957C26.598 26.1169 26.501 26.2622 26.3787 26.3846C26.2564 26.507 26.1111 26.6041 25.9513 26.6704C25.7914 26.7367 25.62 26.7709 25.447 26.771C25.0974 26.7712 24.7621 26.6325 24.5149 26.3855C24.2676 26.1386 24.1286 25.8035 24.1285 25.4541C24.1283 25.1047 24.2669 24.7696 24.5139 24.5223C24.761 24.2751 25.0961 24.1361 25.4457 24.1359C25.7952 24.1358 26.1305 24.2744 26.3777 24.5214C26.625 24.7684 26.764 25.1034 26.7642 25.4528Z" fill="#4F46BA" stroke="white"/>
</g>
<defs>
<clipPath id="clip0_209_64525">
<rect width="40" height="40" fill="white"/>
</clipPath>
</defs>
</svg>
