<svg width="40" height="40" viewBox="0 0 40 40" fill="none" xmlns="http://www.w3.org/2000/svg">
<path d="M25.1217 3.3335H14.895C5.55504 3.3335 3.33337 5.55516 3.33337 14.8785V25.1052C3.33337 34.4435 5.53837 36.6668 14.8784 36.6668H25.105C34.4434 36.6668 36.6667 34.4618 36.6667 25.1218V14.8952C36.6667 5.55516 34.4617 3.3335 25.1217 3.3335ZM30.2434 27.1168H27.8117C26.8917 27.1168 26.615 26.3718 24.965 24.7218C23.525 23.3335 22.9167 23.1602 22.5517 23.1602C22.0484 23.1602 21.91 23.2985 21.91 23.9935V26.1802C21.91 26.7718 21.7184 27.1185 20.1734 27.1185C18.6739 27.0177 17.2199 26.5622 15.931 25.7894C14.6422 25.0166 13.5553 23.9486 12.76 22.6735C10.872 20.3235 9.55828 17.5654 8.92337 14.6185C8.92337 14.2535 9.06171 13.9235 9.75671 13.9235H12.1867C12.8117 13.9235 13.0367 14.2018 13.2817 14.8435C14.4617 18.3168 16.475 21.3368 17.2917 21.3368C17.605 21.3368 17.7417 21.1985 17.7417 20.4168V16.8402C17.6384 15.2085 16.7717 15.0702 16.7717 14.4802C16.7828 14.3245 16.8542 14.1794 16.9705 14.0755C17.0869 13.9715 17.2392 13.917 17.395 13.9235H21.215C21.7367 13.9235 21.91 14.1835 21.91 14.8085V19.6352C21.91 20.1568 22.135 20.3302 22.2917 20.3302C22.605 20.3302 22.8467 20.1568 23.42 19.5835C24.6515 18.0817 25.6576 16.4086 26.4067 14.6168C26.4833 14.4016 26.6282 14.2173 26.8193 14.0922C27.0103 13.967 27.2371 13.9077 27.465 13.9235H29.8967C30.625 13.9235 30.78 14.2885 30.625 14.8085C29.7409 16.7892 28.6468 18.6694 27.3617 20.4168C27.1 20.8168 26.995 21.0252 27.3617 21.4935C27.6034 21.8585 28.455 22.5702 29.0284 23.2468C29.8615 24.0779 30.5534 25.0394 31.0767 26.0935C31.285 26.7702 30.9367 27.1185 30.2434 27.1185V27.1168Z" fill="#282828"/>
</svg>
