<svg width="20" height="20" viewBox="0 0 20 20" fill="none" xmlns="http://www.w3.org/2000/svg">
<path d="M2.88889 10.8889H8.22222C8.45797 10.8889 8.68406 10.7952 8.85076 10.6285C9.01746 10.4618 9.11111 10.2357 9.11111 10V2.88889C9.11111 2.65314 9.01746 2.42705 8.85076 2.26035C8.68406 2.09365 8.45797 2 8.22222 2H2.88889C2.65314 2 2.42705 2.09365 2.26035 2.26035C2.09365 2.42705 2 2.65314 2 2.88889V10C2 10.2357 2.09365 10.4618 2.26035 10.6285C2.42705 10.7952 2.65314 10.8889 2.88889 10.8889ZM2 17.1111C2 17.3469 2.09365 17.573 2.26035 17.7397C2.42705 17.9064 2.65314 18 2.88889 18H8.22222C8.45797 18 8.68406 17.9064 8.85076 17.7397C9.01746 17.573 9.11111 17.3469 9.11111 17.1111V13.5556C9.11111 13.3198 9.01746 13.0937 8.85076 12.927C8.68406 12.7603 8.45797 12.6667 8.22222 12.6667H2.88889C2.65314 12.6667 2.42705 12.7603 2.26035 12.927C2.09365 13.0937 2 13.3198 2 13.5556V17.1111ZM10.8889 17.1111C10.8889 17.3469 10.9825 17.573 11.1492 17.7397C11.3159 17.9064 11.542 18 11.7778 18H17.1111C17.3469 18 17.573 17.9064 17.7397 17.7397C17.9064 17.573 18 17.3469 18 17.1111V10.8889C18 10.6531 17.9064 10.427 17.7397 10.2603C17.573 10.0937 17.3469 10 17.1111 10H11.7778C11.542 10 11.3159 10.0937 11.1492 10.2603C10.9825 10.427 10.8889 10.6531 10.8889 10.8889V17.1111ZM11.7778 8.22222H17.1111C17.3469 8.22222 17.573 8.12857 17.7397 7.96187C17.9064 7.79517 18 7.56908 18 7.33333V2.88889C18 2.65314 17.9064 2.42705 17.7397 2.26035C17.573 2.09365 17.3469 2 17.1111 2H11.7778C11.542 2 11.3159 2.09365 11.1492 2.26035C10.9825 2.42705 10.8889 2.65314 10.8889 2.88889V7.33333C10.8889 7.56908 10.9825 7.79517 11.1492 7.96187C11.3159 8.12857 11.542 8.22222 11.7778 8.22222Z" fill="#2F2B5B"/>
</svg>
