<svg width="289" height="149" viewBox="0 0 289 149" fill="none" xmlns="http://www.w3.org/2000/svg">
<path d="M71.33 53.65C71.2033 54.1567 70.95 55.1067 70.57 56.5C70.3167 57.7667 70.19 58.97 70.19 60.11C71.9633 59.8567 73.5467 59.4133 74.94 58.78C75.5733 58.6533 76.7133 58.4 78.36 58.02C80.0067 57.5133 81.4633 57.26 82.73 57.26C86.91 57.26 90.0767 59.6667 92.23 64.48C91.9767 64.86 90.4567 65.7467 87.67 67.14C83.7433 69.2933 80.9567 70.56 79.31 70.94C73.23 72.46 69.4933 74.1067 68.1 75.88C66.7067 77.5267 65.9467 79.7433 65.82 82.53C65.6933 85.3167 65.63 87.2167 65.63 88.23L62.59 128.89C62.21 134.59 61.26 139.087 59.74 142.38C59.36 143.267 58.6 144.153 57.46 145.04C56.32 145.927 55.0533 146.56 53.66 146.94C49.9867 147.827 48.0867 145.927 47.96 141.24C47.7067 131.487 47.5167 121.987 47.39 112.74C47.77 106.153 48.0233 101.213 48.15 97.92L48.53 91.08C48.6567 89.56 48.6567 88.23 48.53 87.09C48.53 85.8233 48.53 84.6833 48.53 83.67L42.26 85.38C37.7 86.2667 32.1267 87.7867 25.54 89.94C23.8933 90.4467 21.74 90.7 19.08 90.7C14.6467 90.7 10.6567 89.75 7.11 87.85C3.56333 85.8233 1.47333 83.2267 0.84 80.06C0.84 79.5533 0.776667 78.6667 0.65 77.4C0.27 73.98 1.28333 69.8 3.69 64.86C13.57 42.9467 26.3633 22.87 42.07 4.63C42.9567 3.48999 44.4133 2.66666 46.44 2.15999C48.5933 1.52666 50.1133 1.01999 51 0.63999C52.2667 0.259995 54.8 0.0699972 58.6 0.0699972C62.9067 0.0699972 66.8333 0.576661 70.38 1.58999C73.9267 2.47666 75.89 4.12333 76.27 6.52999C76.7767 9.44333 77.03 12.8633 77.03 16.79C77.03 20.21 76.84 23.6933 76.46 27.24C76.08 30.7867 75.1933 36.0433 73.8 43.01C73.1667 45.4167 72.3433 48.9633 71.33 53.65ZM56.7 19.26C38.3333 36.4867 25.92 55.4233 19.46 76.07C19.9667 76.1967 20.6 76.3233 21.36 76.45C22.2467 76.5767 22.88 76.5767 23.26 76.45C31.4933 73.79 39.8533 71.1933 48.34 68.66C49.1 68.5333 49.7333 67.9 50.24 66.76C50.8733 65.62 51.2533 64.6067 51.38 63.72C53.0267 53.2067 54.3567 43.39 55.37 34.27C55.4967 31.8633 55.8133 28.5067 56.32 24.2L56.7 19.26ZM111.343 47.95C113.876 44.2767 117.296 40.0333 121.603 35.22C126.036 30.4067 130.406 26.2267 134.713 22.68C143.579 15.3333 153.776 11.4067 165.303 10.9H165.873C167.773 10.9 169.673 11.3433 171.573 12.23C173.599 13.1167 176.196 14.3833 179.363 16.03C179.869 16.41 180.376 17.36 180.883 18.88C181.389 20.4 181.516 21.6667 181.263 22.68C181.009 22.9333 179.869 23.5033 177.843 24.39L175.563 25.34L173.853 25.72L171.953 25.91L169.103 26.48L171.003 28.76C172.269 30.66 173.536 32.37 174.803 33.89C178.096 38.3233 180.249 41.4267 181.263 43.2C185.063 49.9133 187.026 56.9433 187.153 64.29C187.153 69.7367 186.203 75.12 184.303 80.44C182.529 85.76 180.059 91.65 176.893 98.11C171.446 109.257 165.303 117.427 158.463 122.62C152.256 127.307 145.543 129.65 138.323 129.65C134.523 129.65 130.596 128.89 126.543 127.37C120.843 125.217 115.966 121.733 111.913 116.92C107.859 112.107 105.073 106.533 103.553 100.2C101.779 92.6 100.893 85.76 100.893 79.68C100.893 67.6467 104.376 57.07 111.343 47.95ZM139.083 45.29C127.049 57.3233 120.779 72.08 120.273 89.56C120.146 92.4733 120.336 95.5767 120.843 98.87C121.223 101.53 122.173 104.317 123.693 107.23C125.213 110.143 126.923 111.917 128.823 112.55C129.583 112.803 130.406 112.93 131.293 112.93C133.319 112.93 135.409 112.423 137.563 111.41C139.843 110.27 141.743 108.94 143.263 107.42C158.589 92.0933 166.823 70.6233 167.963 43.01V42.82L167.773 41.68C167.773 40.54 167.709 39.7167 167.583 39.21C167.329 33.6367 166.126 30.2167 163.973 28.95C163.466 28.6967 162.833 28.57 162.073 28.57C160.299 28.57 157.893 29.71 154.853 31.99C150.039 35.1567 144.783 39.59 139.083 45.29ZM267.46 53.65C267.334 54.1567 267.08 55.1067 266.7 56.5C266.447 57.7667 266.32 58.97 266.32 60.11C268.094 59.8567 269.677 59.4133 271.07 58.78C271.704 58.6533 272.844 58.4 274.49 58.02C276.137 57.5133 277.594 57.26 278.86 57.26C283.04 57.26 286.207 59.6667 288.36 64.48C288.107 64.86 286.587 65.7467 283.8 67.14C279.874 69.2933 277.087 70.56 275.44 70.94C269.36 72.46 265.624 74.1067 264.23 75.88C262.837 77.5267 262.077 79.7433 261.95 82.53C261.824 85.3167 261.76 87.2167 261.76 88.23L258.72 128.89C258.34 134.59 257.39 139.087 255.87 142.38C255.49 143.267 254.73 144.153 253.59 145.04C252.45 145.927 251.184 146.56 249.79 146.94C246.117 147.827 244.217 145.927 244.09 141.24C243.837 131.487 243.647 121.987 243.52 112.74C243.9 106.153 244.154 101.213 244.28 97.92L244.66 91.08C244.787 89.56 244.787 88.23 244.66 87.09C244.66 85.8233 244.66 84.6833 244.66 83.67L238.39 85.38C233.83 86.2667 228.257 87.7867 221.67 89.94C220.024 90.4467 217.87 90.7 215.21 90.7C210.777 90.7 206.787 89.75 203.24 87.85C199.694 85.8233 197.604 83.2267 196.97 80.06C196.97 79.5533 196.907 78.6667 196.78 77.4C196.4 73.98 197.414 69.8 199.82 64.86C209.7 42.9467 222.494 22.87 238.2 4.63C239.087 3.48999 240.544 2.66666 242.57 2.15999C244.724 1.52666 246.244 1.01999 247.13 0.63999C248.397 0.259995 250.93 0.0699972 254.73 0.0699972C259.037 0.0699972 262.964 0.576661 266.51 1.58999C270.057 2.47666 272.02 4.12333 272.4 6.52999C272.907 9.44333 273.16 12.8633 273.16 16.79C273.16 20.21 272.97 23.6933 272.59 27.24C272.21 30.7867 271.324 36.0433 269.93 43.01C269.297 45.4167 268.474 48.9633 267.46 53.65ZM252.83 19.26C234.464 36.4867 222.05 55.4233 215.59 76.07C216.097 76.1967 216.73 76.3233 217.49 76.45C218.377 76.5767 219.01 76.5767 219.39 76.45C227.624 73.79 235.984 71.1933 244.47 68.66C245.23 68.5333 245.864 67.9 246.37 66.76C247.004 65.62 247.384 64.6067 247.51 63.72C249.157 53.2067 250.487 43.39 251.5 34.27C251.627 31.8633 251.944 28.5067 252.45 24.2L252.83 19.26Z" fill="white"/>
</svg>
