<svg width="19" height="19" viewBox="0 0 19 19" fill="none" xmlns="http://www.w3.org/2000/svg">
<path d="M18.4171 16.7497L14.4171 12.7497C15.3337 11.4997 15.8337 9.99967 15.8337 8.33301C15.8337 4.16634 12.5004 0.833008 8.33374 0.833008C4.16707 0.833008 0.83374 4.16634 0.83374 8.33301C0.83374 12.4997 4.16707 15.833 8.33374 15.833C10.0004 15.833 11.5004 15.333 12.7504 14.4163L16.7504 18.4163C17.2504 18.9163 17.9171 18.9163 18.4171 18.4163C18.8337 17.9163 18.8337 17.1663 18.4171 16.7497ZM8.33374 13.7497C5.33374 13.7497 2.91707 11.333 2.91707 8.33301C2.91707 5.33301 5.33374 2.91634 8.33374 2.91634C11.3337 2.91634 13.7504 5.33301 13.7504 8.33301C13.7504 11.333 11.3337 13.7497 8.33374 13.7497Z" fill="#C2C0D2"/>
</svg>
