<svg width="20" height="20" viewBox="0 0 20 20" fill="none" xmlns="http://www.w3.org/2000/svg">
<path d="M13.7282 4.50677L15.4932 6.27093L13.7282 4.50677ZM14.8632 2.9526L10.0907 7.7251C9.84408 7.97135 9.6759 8.28509 9.60734 8.62677L9.1665 10.8334L11.3732 10.3918C11.7148 10.3234 12.0282 10.1559 12.2748 9.90927L17.0473 5.13677C17.1908 4.99335 17.3045 4.82309 17.3821 4.63571C17.4597 4.44833 17.4997 4.2475 17.4997 4.04468C17.4997 3.84186 17.4597 3.64103 17.3821 3.45365C17.3045 3.26627 17.1908 3.09601 17.0473 2.9526C16.9039 2.80919 16.7337 2.69542 16.5463 2.61781C16.3589 2.54019 16.1581 2.50024 15.9553 2.50024C15.7524 2.50024 15.5516 2.54019 15.3642 2.61781C15.1768 2.69542 15.0066 2.80919 14.8632 2.9526V2.9526Z" stroke="#2F2B5B" stroke-width="1.66667" stroke-linecap="round" stroke-linejoin="round"/>
<mask id="path-2-inside-1_3612_104295" fill="white">
<path d="M15.8333 12.5001V15.0001C15.8333 15.4421 15.6577 15.866 15.3451 16.1786C15.0325 16.4912 14.6086 16.6667 14.1666 16.6667H4.99992C4.55789 16.6667 4.13397 16.4912 3.82141 16.1786C3.50885 15.866 3.33325 15.4421 3.33325 15.0001V5.83341C3.33325 5.39139 3.50885 4.96746 3.82141 4.6549C4.13397 4.34234 4.55789 4.16675 4.99992 4.16675H7.49992"/>
</mask>
<path d="M17.4999 12.5001V10.8334H14.1666V12.5001H17.4999ZM3.33325 15.0001H1.66659H3.33325ZM4.99992 4.16675V2.50008V4.16675ZM7.49992 5.83341H9.16658V2.50008H7.49992V5.83341ZM14.1666 12.5001V15.0001H17.4999V12.5001H14.1666ZM14.1666 15.0001L14.1666 15.0001L16.5236 17.3571C17.1487 16.732 17.4999 15.8841 17.4999 15.0001H14.1666ZM14.1666 15.0001L14.1666 15.0001V18.3334C15.0506 18.3334 15.8985 17.9822 16.5236 17.3571L14.1666 15.0001ZM14.1666 15.0001H4.99992V18.3334H14.1666V15.0001ZM4.99992 15.0001L4.99992 15.0001L2.6429 17.3571C3.26802 17.9822 4.11586 18.3334 4.99992 18.3334V15.0001ZM4.99992 15.0001L4.99992 15.0001H1.66659C1.66659 15.8841 2.01778 16.732 2.6429 17.3571L4.99992 15.0001ZM4.99992 15.0001V5.83341H1.66659V15.0001H4.99992ZM4.99992 5.83341L4.99992 5.83341L2.6429 3.47639C2.01777 4.10151 1.66659 4.94936 1.66659 5.83341H4.99992ZM4.99992 5.83341L4.99992 5.83341V2.50008C4.11586 2.50008 3.26802 2.85127 2.6429 3.47639L4.99992 5.83341ZM4.99992 5.83341H7.49992V2.50008H4.99992V5.83341Z" fill="#2F2B5B" mask="url(#path-2-inside-1_3612_104295)"/>
</svg>
