<svg width="18" height="19" viewBox="0 0 18 19" fill="none" xmlns="http://www.w3.org/2000/svg">
<path d="M3 4.49996V2.69995C3.00001 2.17874 3.16765 1.66867 3.48266 1.23132C3.79768 0.793962 4.24662 0.448017 4.77529 0.235238C5.30395 0.0224602 5.88975 -0.0480548 6.46196 0.032205C7.03418 0.112465 7.56835 0.340069 8 0.687543C8.43165 0.340069 8.96582 0.112465 9.53804 0.032205C10.1103 -0.0480548 10.696 0.0224602 11.2247 0.235238C11.7534 0.448017 12.2023 0.793962 12.5173 1.23132C12.8324 1.66867 13 2.17874 13 2.69995V4.49996H14.5C14.8978 4.49996 15.2794 4.64219 15.5607 4.89536C15.842 5.14854 16 5.49192 16 5.84996V14.4C16.0003 15.0007 15.8334 15.5919 15.5146 16.1196C15.1958 16.6474 14.7353 17.0949 14.175 17.4213L13.63 17.3349C12.855 17.2125 12.056 16.8282 11.455 16.2801C10.855 15.732 10.5 15.0687 10.5 14.4V4.49996H11.5V2.69995C11.5 2.42206 11.4048 2.15093 11.2272 1.92357C11.0497 1.69622 10.7985 1.52371 10.508 1.42959C10.2175 1.33548 9.90177 1.32435 9.60396 1.39772C9.30615 1.47109 9.04076 1.62539 8.844 1.83955C8.945 2.10955 9 2.39935 9 2.69995V14.4C9 15.5061 9.582 16.4934 10.387 17.2278C10.7116 17.5229 11.0742 17.7822 11.467 18H4C2.93913 18 1.92172 17.6207 1.17157 16.9456C0.421427 16.2704 0 15.3548 0 14.4V5.84996C0 5.49192 0.158035 5.14854 0.43934 4.89536C0.720644 4.64219 1.10218 4.49996 1.5 4.49996H3ZM4.5 2.69995V4.49996H7.5V2.69995C7.5 2.34191 7.34196 1.99853 7.06066 1.74535C6.77936 1.49218 6.39782 1.34994 6 1.34994C5.60218 1.34994 5.22064 1.49218 4.93934 1.74535C4.65804 1.99853 4.5 2.34191 4.5 2.69995V2.69995Z" fill="#2F2B5B"/>
<path d="M12.4044 16.4182L12.4041 16.4178L10.1281 14.1409L10.1039 14.1096L10.0917 14.0871L10.0786 14.0522L10.0731 14.0206L10.074 13.9713L10.082 13.9371L10.0899 13.9171L10.111 13.88L10.1266 13.8606L12.395 11.5912L12.4398 11.5548C12.4781 11.5303 12.5224 11.5195 12.5671 11.5235C12.6117 11.5275 12.6536 11.5459 12.6865 11.5759L12.7219 11.6185C12.7457 11.6564 12.7566 11.7012 12.7525 11.746C12.7481 11.7937 12.7272 11.8384 12.6933 11.8722L12.6932 11.8723L11.1969 13.3687L10.7701 13.7955H11.3736H15.7162L15.7732 13.8005C15.8166 13.8105 15.8557 13.8345 15.8844 13.8689C15.9132 13.9034 15.9297 13.9463 15.9316 13.991L15.9268 14.0459C15.9167 14.0894 15.8928 14.1285 15.8584 14.1571C15.8216 14.1878 15.7752 14.2046 15.7274 14.2045H15.7273H11.3736H10.7701L11.1969 14.6313L12.685 16.1194L12.7221 16.1643C12.7479 16.2049 12.7586 16.2534 12.7521 16.3012C12.7453 16.3519 12.7197 16.3982 12.6804 16.4309C12.6411 16.4637 12.591 16.4805 12.5399 16.4782C12.4889 16.4758 12.4405 16.4544 12.4044 16.4182ZM16.7123 10.2877C15.7277 9.30312 14.3924 8.75 13 8.75C11.6076 8.75 10.2723 9.30312 9.28769 10.2877C8.30312 11.2723 7.75 12.6076 7.75 14C7.75 15.3924 8.30312 16.7277 9.28769 17.7123C10.2723 18.6969 11.6076 19.25 13 19.25C14.3924 19.25 15.7277 18.6969 16.7123 17.7123C17.6969 16.7277 18.25 15.3924 18.25 14C18.25 12.6076 17.6969 11.2723 16.7123 10.2877Z" fill="#2F2B5B" stroke="white" stroke-width="0.5"/>
</svg>
