<svg width="20" height="20" viewBox="0 0 20 20" fill="none" xmlns="http://www.w3.org/2000/svg">
<path d="M10 5C9.40666 5 8.82664 5.17595 8.33329 5.50559C7.83994 5.83524 7.45543 6.30377 7.22836 6.85195C7.0013 7.40013 6.94189 8.00333 7.05765 8.58527C7.1734 9.16721 7.45912 9.70176 7.87868 10.1213C8.29824 10.5409 8.83279 10.8266 9.41473 10.9424C9.99667 11.0581 10.5999 10.9987 11.1481 10.7716C11.6962 10.5446 12.1648 10.1601 12.4944 9.66671C12.8241 9.17336 13 8.59334 13 8C13 7.20435 12.6839 6.44129 12.1213 5.87868C11.5587 5.31607 10.7957 5 10 5Z" fill="#2F2B5B"/>
<path d="M10 1C8.21997 1 6.47991 1.52784 4.99987 2.51677C3.51983 3.50571 2.36628 4.91131 1.68509 6.55585C1.0039 8.20038 0.82567 10.01 1.17294 11.7558C1.5202 13.5016 2.37737 15.1053 3.63604 16.364C4.89471 17.6226 6.49836 18.4798 8.24419 18.8271C9.99002 19.1743 11.7996 18.9961 13.4442 18.3149C15.0887 17.6337 16.4943 16.4802 17.4832 15.0001C18.4722 13.5201 19 11.78 19 10C18.9973 7.61389 18.0482 5.32628 16.361 3.63905C14.6737 1.95181 12.3861 1.00272 10 1V1ZM15.1377 15.7381C15.1249 14.8949 14.7814 14.0905 14.1811 13.4982C13.5808 12.9058 12.7719 12.573 11.9286 12.5714H8.07143C7.22812 12.573 6.41918 12.9058 5.81892 13.4982C5.21865 14.0905 4.8751 14.8949 4.86229 15.7381C3.69651 14.6972 2.8744 13.3267 2.50483 11.8081C2.13525 10.2896 2.23564 8.69458 2.7927 7.23434C3.34976 5.7741 4.33722 4.5175 5.62431 3.63094C6.91141 2.74437 8.43744 2.26966 10.0003 2.26966C11.5632 2.26966 13.0892 2.74437 14.3763 3.63094C15.6634 4.5175 16.6509 5.7741 17.2079 7.23434C17.765 8.69458 17.8654 10.2896 17.4958 11.8081C17.1262 13.3267 16.3041 14.6972 15.1384 15.7381H15.1377Z" fill="#2F2B5B"/>
</svg>
