<svg width="580" height="20" viewBox="0 0 580 20" fill="none" xmlns="http://www.w3.org/2000/svg">
<g clip-path="url(#clip0_3479_36999)">
<path d="M5 5.49996V3.69995C5.00001 3.17874 5.16765 2.66867 5.48266 2.23132C5.79768 1.79396 6.24662 1.44802 6.77529 1.23524C7.30395 1.02246 7.88975 0.951945 8.46196 1.03221C9.03418 1.11246 9.56835 1.34007 10 1.68754C10.4317 1.34007 10.9658 1.11246 11.538 1.03221C12.1103 0.951945 12.696 1.02246 13.2247 1.23524C13.7534 1.44802 14.2023 1.79396 14.5173 2.23132C14.8324 2.66867 15 3.17874 15 3.69995V5.49996H16.5C16.8978 5.49996 17.2794 5.64219 17.5607 5.89536C17.842 6.14854 18 6.49192 18 6.84996V15.4C18.0003 16.0007 17.8334 16.5919 17.5146 17.1196C17.1958 17.6474 16.7353 18.0949 16.175 18.4213L15.63 18.3349C14.855 18.2125 14.056 17.8282 13.455 17.2801C12.855 16.732 12.5 16.0687 12.5 15.4V5.49996H13.5V3.69995C13.5 3.42206 13.4048 3.15093 13.2272 2.92357C13.0497 2.69622 12.7985 2.52371 12.508 2.42959C12.2175 2.33548 11.9018 2.32435 11.604 2.39772C11.3062 2.47109 11.0408 2.62539 10.844 2.83955C10.945 3.10955 11 3.39935 11 3.69995V15.4C11 16.5061 11.582 17.4934 12.387 18.2278C12.7116 18.5229 13.0742 18.7822 13.467 19H6C4.93913 19 3.92172 18.6207 3.17157 17.9456C2.42143 17.2704 2 16.3548 2 15.4V6.84996C2 6.49192 2.15804 6.14854 2.43934 5.89536C2.72064 5.64219 3.10218 5.49996 3.5 5.49996H5ZM6.5 3.69995V5.49996H9.5V3.69995C9.5 3.34191 9.34196 2.99853 9.06066 2.74535C8.77936 2.49218 8.39782 2.34994 8 2.34994C7.60218 2.34994 7.22064 2.49218 6.93934 2.74535C6.65804 2.99853 6.5 3.34191 6.5 3.69995Z" fill="#4F46BA"/>
<path d="M15.0773 12.4691C15.0168 12.5566 14.9889 12.6627 14.9985 12.7686C15.0082 12.8746 15.0547 12.9739 15.13 13.0491L16.3764 14.2955H16.6264V14.5455L16.4496 14.7222L16.2728 14.5455H12.2727M15.0773 12.4691L15.13 12.4055M15.0773 12.4691L15.2829 12.6112C15.2813 12.6136 15.2797 12.6161 15.2781 12.6185M15.0773 12.4691L15.2698 12.6286L15.2781 12.6185M15.13 12.4055C15.2053 12.3303 15.3046 12.2839 15.4106 12.2745C15.5166 12.265 15.6216 12.293 15.7091 12.3536M15.13 12.4055L15.3225 12.565L15.3135 12.5759M15.13 12.4055L15.3066 12.5824C15.3088 12.5802 15.3111 12.578 15.3135 12.5759M15.7091 12.3536L15.7727 12.4055M15.7091 12.3536L15.5667 12.5591C15.5645 12.5576 15.5624 12.5562 15.5602 12.5548M15.7091 12.3536L15.5512 12.5475L15.5602 12.5548M15.7727 12.4055L18.06 14.6936M15.7727 12.4055L15.6149 12.5993L15.605 12.5912M15.7727 12.4055L15.5959 12.5822L15.605 12.5912M18.06 14.6936L18.0964 14.7391M18.06 14.6936L17.9053 14.8482L18.0964 14.7391M18.06 14.6936L17.8648 14.8498L17.8734 14.8606M18.0964 14.7391L18.1364 14.8091M18.0964 14.7391L17.9012 14.8953L17.889 14.88M18.1364 14.8091L18.1573 14.8627M18.1364 14.8091L17.9621 14.9086L18.1573 14.8627M18.1364 14.8091L17.9034 14.8999L17.9101 14.9171M18.1573 14.8627L18.1755 14.94M18.1573 14.8627L17.9485 14.9441L18.1755 14.94M18.1755 14.94L18.1773 15.04M18.1755 14.94L17.9322 14.9972L18.1773 15.04M18.1773 15.04L18.1636 15.1182M18.1773 15.04L17.9654 15.0439L18.1636 15.1182M18.1636 15.1182L18.1364 15.1909M18.1636 15.1182L17.925 15.0765L18.1364 15.1909M18.1364 15.1909L18.1064 15.2464M18.1364 15.1909L17.9387 15.1168L18.1064 15.2464M18.1064 15.2464L18.06 15.3064M18.1064 15.2464L17.8865 15.1274L17.8961 15.1096M18.06 15.3064L15.7727 17.5945C15.6926 17.6751 15.5851 17.7227 15.4716 17.7279C15.3581 17.7332 15.2467 17.6957 15.1595 17.6229C15.0722 17.5502 15.0154 17.4473 15.0001 17.3347C14.9849 17.2221 15.0124 17.1079 15.0773 17.0145M18.06 15.3064L17.8622 15.1535L17.8719 15.1409M18.06 15.3064L17.8832 15.1296L17.8719 15.1409M15.0773 17.0145L15.13 16.9509M15.0773 17.0145L15.2826 17.1572C15.281 17.1595 15.2794 17.1619 15.2779 17.1643M15.0773 17.0145L15.2698 17.1741L15.2779 17.1643M15.13 16.9509L16.3764 15.7045H16.6264V15.4545L16.4496 15.2778L16.2728 15.4545H12.2727C12.1663 15.4546 12.0633 15.4173 11.9816 15.3492C11.8999 15.2811 11.8446 15.1865 11.8255 15.0818M15.13 16.9509L15.3225 17.1104L15.315 17.1194M15.13 16.9509L15.3068 17.1277L15.315 17.1194M11.8255 15.0818L11.8182 15M11.8255 15.0818L12.0714 15.0368C12.0719 15.0399 12.0726 15.0429 12.0732 15.0459M11.8255 15.0818L12.0745 15.0597L12.0732 15.0459M11.8182 15C11.8181 14.8936 11.8554 14.7906 11.9235 14.7089C11.9916 14.6271 12.0863 14.5719 12.1909 14.5527M11.8182 15L12.0672 14.9779L12.0684 14.991M11.8182 15L12.0682 14.9999C12.0682 14.997 12.0682 14.994 12.0684 14.991M12.1909 14.5527L12.2727 14.5455M12.1909 14.5527L12.2359 14.7986C12.2329 14.7992 12.2298 14.7998 12.2268 14.8005M12.1909 14.5527L12.213 14.8017L12.2268 14.8005M12.2727 14.5455L12.2949 14.7945L12.2838 14.7955M12.2727 14.5455V14.7955H12.2838M12.2838 14.7955L12.2268 14.8005M12.2838 14.7955H16.6264H17.2299L16.8031 14.3687L15.3068 12.8723L15.3067 12.8722C15.2728 12.8384 15.2519 12.7937 15.2475 12.746C15.2434 12.7012 15.2543 12.6564 15.2781 12.6185M12.2268 14.8005C12.1834 14.8105 12.1443 14.8345 12.1156 14.8689C12.0868 14.9034 12.0703 14.9463 12.0684 14.991M12.0684 14.991L12.0732 15.0459M12.0732 15.0459C12.0833 15.0894 12.1072 15.1285 12.1416 15.1571C12.1784 15.1878 12.2248 15.2046 12.2726 15.2045H12.2727H16.6264H17.2299L16.8031 15.6313L15.315 17.1194M15.315 17.1194L15.2779 17.1643M15.2779 17.1643C15.2521 17.2049 15.2414 17.2534 15.2479 17.3012C15.2547 17.3519 15.2803 17.3982 15.3196 17.4309C15.3589 17.4637 15.409 17.4805 15.4601 17.4782C15.5111 17.4758 15.5595 17.4544 15.5956 17.4182L15.5959 17.4178L17.8719 15.1409M17.8719 15.1409L17.8961 15.1096M17.8961 15.1096L17.9083 15.0871M17.8961 15.1096L17.9034 15.1002L17.9083 15.0871M17.9083 15.0871L17.9214 15.0522M17.9083 15.0871L17.9165 15.072L17.9178 15.0727L17.9214 15.0522M17.9214 15.0522L17.9269 15.0206M17.9214 15.0522L17.9272 15.0367L17.9269 15.0206M17.9269 15.0206L17.926 14.9713M17.9269 15.0206L17.931 14.997L17.9321 14.9972L17.926 14.9713M17.926 14.9713L17.918 14.9371M17.926 14.9713L17.9256 14.953L17.9243 14.9535L17.918 14.9371M17.918 14.9371L17.9101 14.9171M17.918 14.9371L17.9154 14.9263L17.9101 14.9171M17.9101 14.9171L17.889 14.88M17.889 14.88L17.8734 14.8606M17.889 14.88L17.8834 14.8702L17.8832 14.8704L17.8734 14.8606M17.8734 14.8606L15.605 12.5912M15.605 12.5912L15.5602 12.5548M15.5602 12.5548C15.5219 12.5303 15.4776 12.5195 15.4329 12.5235C15.3883 12.5275 15.3464 12.5459 15.3135 12.5759M15.3135 12.5759L15.2781 12.6185M11.2877 11.2877C12.2723 10.3031 13.6076 9.75 15 9.75C16.3924 9.75 17.7277 10.3031 18.7123 11.2877C19.6969 12.2723 20.25 13.6076 20.25 15C20.25 16.3924 19.6969 17.7277 18.7123 18.7123C17.7277 19.6969 16.3924 20.25 15 20.25C13.6076 20.25 12.2723 19.6969 11.2877 18.7123C10.3031 17.7277 9.75 16.3924 9.75 15C9.75 13.6076 10.3031 12.2723 11.2877 11.2877Z" fill="#4F46BA" stroke="white" stroke-width="0.5"/>
<path d="M5 5.49996V3.69995C5.00001 3.17874 5.16765 2.66867 5.48266 2.23132C5.79768 1.79396 6.24662 1.44802 6.77529 1.23524C7.30395 1.02246 7.88975 0.951945 8.46196 1.03221C9.03418 1.11246 9.56835 1.34007 10 1.68754C10.4317 1.34007 10.9658 1.11246 11.538 1.03221C12.1103 0.951945 12.696 1.02246 13.2247 1.23524C13.7534 1.44802 14.2023 1.79396 14.5173 2.23132C14.8324 2.66867 15 3.17874 15 3.69995V5.49996H16.5C16.8978 5.49996 17.2794 5.64219 17.5607 5.89536C17.842 6.14854 18 6.49192 18 6.84996V15.4C18.0003 16.0007 17.8334 16.5919 17.5146 17.1196C17.1958 17.6474 16.7353 18.0949 16.175 18.4213L15.63 18.3349C14.855 18.2125 14.056 17.8282 13.455 17.2801C12.855 16.732 12.5 16.0687 12.5 15.4V5.49996H13.5V3.69995C13.5 3.42206 13.4048 3.15093 13.2272 2.92357C13.0497 2.69622 12.7985 2.52371 12.508 2.42959C12.2175 2.33548 11.9018 2.32435 11.604 2.39772C11.3062 2.47109 11.0408 2.62539 10.844 2.83955C10.945 3.10955 11 3.39935 11 3.69995V15.4C11 16.5061 11.582 17.4934 12.387 18.2278C12.7116 18.5229 13.0742 18.7822 13.467 19H6C4.93913 19 3.92172 18.6207 3.17157 17.9456C2.42143 17.2704 2 16.3548 2 15.4V6.84996C2 6.49192 2.15804 6.14854 2.43934 5.89536C2.72064 5.64219 3.10218 5.49996 3.5 5.49996H5ZM6.5 3.69995V5.49996H9.5V3.69995C9.5 3.34191 9.34196 2.99853 9.06066 2.74535C8.77936 2.49218 8.39782 2.34994 8 2.34994C7.60218 2.34994 7.22064 2.49218 6.93934 2.74535C6.65804 2.99853 6.5 3.34191 6.5 3.69995Z" fill="#2F2B5B"/>
<path d="M15.0773 12.4691C15.0168 12.5566 14.9889 12.6627 14.9985 12.7686C15.0082 12.8746 15.0547 12.9739 15.13 13.0491L16.3764 14.2955H16.6264V14.5455L16.4496 14.7222L16.2728 14.5455H12.2727M15.0773 12.4691L15.13 12.4055M15.0773 12.4691L15.2829 12.6112C15.2813 12.6136 15.2797 12.6161 15.2781 12.6185M15.0773 12.4691L15.2698 12.6286L15.2781 12.6185M15.13 12.4055C15.2053 12.3303 15.3046 12.2839 15.4106 12.2745C15.5166 12.265 15.6216 12.293 15.7091 12.3536M15.13 12.4055L15.3225 12.565L15.3135 12.5759M15.13 12.4055L15.3066 12.5824C15.3088 12.5802 15.3111 12.578 15.3135 12.5759M15.7091 12.3536L15.7727 12.4055M15.7091 12.3536L15.5667 12.5591C15.5645 12.5576 15.5624 12.5562 15.5602 12.5548M15.7091 12.3536L15.5512 12.5475L15.5602 12.5548M15.7727 12.4055L18.06 14.6936M15.7727 12.4055L15.6149 12.5993L15.605 12.5912M15.7727 12.4055L15.5959 12.5822L15.605 12.5912M18.06 14.6936L18.0964 14.7391M18.06 14.6936L17.9053 14.8482L18.0964 14.7391M18.06 14.6936L17.8648 14.8498L17.8734 14.8606M18.0964 14.7391L18.1364 14.8091M18.0964 14.7391L17.9012 14.8953L17.889 14.88M18.1364 14.8091L18.1573 14.8627M18.1364 14.8091L17.9621 14.9086L18.1573 14.8627M18.1364 14.8091L17.9034 14.8999L17.9101 14.9171M18.1573 14.8627L18.1755 14.94M18.1573 14.8627L17.9485 14.9441L18.1755 14.94M18.1755 14.94L18.1773 15.04M18.1755 14.94L17.9322 14.9972L18.1773 15.04M18.1773 15.04L18.1636 15.1182M18.1773 15.04L17.9654 15.0439L18.1636 15.1182M18.1636 15.1182L18.1364 15.1909M18.1636 15.1182L17.925 15.0765L18.1364 15.1909M18.1364 15.1909L18.1064 15.2464M18.1364 15.1909L17.9387 15.1168L18.1064 15.2464M18.1064 15.2464L18.06 15.3064M18.1064 15.2464L17.8865 15.1274L17.8961 15.1096M18.06 15.3064L15.7727 17.5945C15.6926 17.6751 15.5851 17.7227 15.4716 17.7279C15.3581 17.7332 15.2467 17.6957 15.1595 17.6229C15.0722 17.5502 15.0154 17.4473 15.0001 17.3347C14.9849 17.2221 15.0124 17.1079 15.0773 17.0145M18.06 15.3064L17.8622 15.1535L17.8719 15.1409M18.06 15.3064L17.8832 15.1296L17.8719 15.1409M15.0773 17.0145L15.13 16.9509M15.0773 17.0145L15.2826 17.1572C15.281 17.1595 15.2794 17.1619 15.2779 17.1643M15.0773 17.0145L15.2698 17.1741L15.2779 17.1643M15.13 16.9509L16.3764 15.7045H16.6264V15.4545L16.4496 15.2778L16.2728 15.4545H12.2727C12.1663 15.4546 12.0633 15.4173 11.9816 15.3492C11.8999 15.2811 11.8446 15.1865 11.8255 15.0818M15.13 16.9509L15.3225 17.1104L15.315 17.1194M15.13 16.9509L15.3068 17.1277L15.315 17.1194M11.8255 15.0818L11.8182 15M11.8255 15.0818L12.0714 15.0368C12.0719 15.0399 12.0726 15.0429 12.0732 15.0459M11.8255 15.0818L12.0745 15.0597L12.0732 15.0459M11.8182 15C11.8181 14.8936 11.8554 14.7906 11.9235 14.7089C11.9916 14.6271 12.0863 14.5719 12.1909 14.5527M11.8182 15L12.0672 14.9779L12.0684 14.991M11.8182 15L12.0682 14.9999C12.0682 14.997 12.0682 14.994 12.0684 14.991M12.1909 14.5527L12.2727 14.5455M12.1909 14.5527L12.2359 14.7986C12.2329 14.7992 12.2298 14.7998 12.2268 14.8005M12.1909 14.5527L12.213 14.8017L12.2268 14.8005M12.2727 14.5455L12.2949 14.7945L12.2838 14.7955M12.2727 14.5455V14.7955H12.2838M12.2838 14.7955L12.2268 14.8005M12.2838 14.7955H16.6264H17.2299L16.8031 14.3687L15.3068 12.8723L15.3067 12.8722C15.2728 12.8384 15.2519 12.7937 15.2475 12.746C15.2434 12.7012 15.2543 12.6564 15.2781 12.6185M12.2268 14.8005C12.1834 14.8105 12.1443 14.8345 12.1156 14.8689C12.0868 14.9034 12.0703 14.9463 12.0684 14.991M12.0684 14.991L12.0732 15.0459M12.0732 15.0459C12.0833 15.0894 12.1072 15.1285 12.1416 15.1571C12.1784 15.1878 12.2248 15.2046 12.2726 15.2045H12.2727H16.6264H17.2299L16.8031 15.6313L15.315 17.1194M15.315 17.1194L15.2779 17.1643M15.2779 17.1643C15.2521 17.2049 15.2414 17.2534 15.2479 17.3012C15.2547 17.3519 15.2803 17.3982 15.3196 17.4309C15.3589 17.4637 15.409 17.4805 15.4601 17.4782C15.5111 17.4758 15.5595 17.4544 15.5956 17.4182L15.5959 17.4178L17.8719 15.1409M17.8719 15.1409L17.8961 15.1096M17.8961 15.1096L17.9083 15.0871M17.8961 15.1096L17.9034 15.1002L17.9083 15.0871M17.9083 15.0871L17.9214 15.0522M17.9083 15.0871L17.9165 15.072L17.9178 15.0727L17.9214 15.0522M17.9214 15.0522L17.9269 15.0206M17.9214 15.0522L17.9272 15.0367L17.9269 15.0206M17.9269 15.0206L17.926 14.9713M17.9269 15.0206L17.931 14.997L17.9321 14.9972L17.926 14.9713M17.926 14.9713L17.918 14.9371M17.926 14.9713L17.9256 14.953L17.9243 14.9535L17.918 14.9371M17.918 14.9371L17.9101 14.9171M17.918 14.9371L17.9154 14.9263L17.9101 14.9171M17.9101 14.9171L17.889 14.88M17.889 14.88L17.8734 14.8606M17.889 14.88L17.8834 14.8702L17.8832 14.8704L17.8734 14.8606M17.8734 14.8606L15.605 12.5912M15.605 12.5912L15.5602 12.5548M15.5602 12.5548C15.5219 12.5303 15.4776 12.5195 15.4329 12.5235C15.3883 12.5275 15.3464 12.5459 15.3135 12.5759M15.3135 12.5759L15.2781 12.6185M11.2877 11.2877C12.2723 10.3031 13.6076 9.75 15 9.75C16.3924 9.75 17.7277 10.3031 18.7123 11.2877C19.6969 12.2723 20.25 13.6076 20.25 15C20.25 16.3924 19.6969 17.7277 18.7123 18.7123C17.7277 19.6969 16.3924 20.25 15 20.25C13.6076 20.25 12.2723 19.6969 11.2877 18.7123C10.3031 17.7277 9.75 16.3924 9.75 15C9.75 13.6076 10.3031 12.2723 11.2877 11.2877Z" fill="#2F2B5B" stroke="white" stroke-width="0.5"/>
<path d="M5 5.49996V3.69995C5.00001 3.17874 5.16765 2.66867 5.48266 2.23132C5.79768 1.79396 6.24662 1.44802 6.77529 1.23524C7.30395 1.02246 7.88975 0.951945 8.46196 1.03221C9.03418 1.11246 9.56835 1.34007 10 1.68754C10.4317 1.34007 10.9658 1.11246 11.538 1.03221C12.1103 0.951945 12.696 1.02246 13.2247 1.23524C13.7534 1.44802 14.2023 1.79396 14.5173 2.23132C14.8324 2.66867 15 3.17874 15 3.69995V5.49996H16.5C16.8978 5.49996 17.2794 5.64219 17.5607 5.89536C17.842 6.14854 18 6.49192 18 6.84996V15.4C18.0003 16.0007 17.8334 16.5919 17.5146 17.1196C17.1958 17.6474 16.7353 18.0949 16.175 18.4213L15.63 18.3349C14.855 18.2125 14.056 17.8282 13.455 17.2801C12.855 16.732 12.5 16.0687 12.5 15.4V5.49996H13.5V3.69995C13.5 3.42206 13.4048 3.15093 13.2272 2.92357C13.0497 2.69622 12.7985 2.52371 12.508 2.42959C12.2175 2.33548 11.9018 2.32435 11.604 2.39772C11.3062 2.47109 11.0408 2.62539 10.844 2.83955C10.945 3.10955 11 3.39935 11 3.69995V15.4C11 16.5061 11.582 17.4934 12.387 18.2278C12.7116 18.5229 13.0742 18.7822 13.467 19H6C4.93913 19 3.92172 18.6207 3.17157 17.9456C2.42143 17.2704 2 16.3548 2 15.4V6.84996C2 6.49192 2.15804 6.14854 2.43934 5.89536C2.72064 5.64219 3.10218 5.49996 3.5 5.49996H5ZM6.5 3.69995V5.49996H9.5V3.69995C9.5 3.34191 9.34196 2.99853 9.06066 2.74535C8.77936 2.49218 8.39782 2.34994 8 2.34994C7.60218 2.34994 7.22064 2.49218 6.93934 2.74535C6.65804 2.99853 6.5 3.34191 6.5 3.69995Z" fill="#2F2B5B"/>
<path d="M14.9227 12.4691C14.9832 12.5566 15.0111 12.6627 15.0015 12.7686C14.9918 12.8746 14.9453 12.9739 14.87 13.0491L13.6236 14.2955H13.3736V14.5455L13.5504 14.7222L13.7272 14.5455H17.7273M14.9227 12.4691L14.87 12.4055M14.9227 12.4691L14.7171 12.6112C14.7187 12.6136 14.7203 12.6161 14.7219 12.6185M14.9227 12.4691L14.7302 12.6286L14.7219 12.6185M14.87 12.4055C14.7947 12.3303 14.6954 12.2839 14.5894 12.2745C14.4834 12.265 14.3784 12.293 14.2909 12.3536M14.87 12.4055L14.6775 12.565L14.6865 12.5759M14.87 12.4055L14.6934 12.5824C14.6912 12.5802 14.6889 12.578 14.6865 12.5759M14.2909 12.3536L14.2273 12.4055M14.2909 12.3536L14.4333 12.5591C14.4355 12.5576 14.4376 12.5562 14.4398 12.5548M14.2909 12.3536L14.4488 12.5475L14.4398 12.5548M14.2273 12.4055L11.94 14.6936M14.2273 12.4055L14.3851 12.5993L14.395 12.5912M14.2273 12.4055L14.4041 12.5822L14.395 12.5912M11.94 14.6936L11.9036 14.7391M11.94 14.6936L12.0947 14.8482L11.9036 14.7391M11.94 14.6936L12.1352 14.8498L12.1266 14.8606M11.9036 14.7391L11.8636 14.8091M11.9036 14.7391L12.0988 14.8953L12.111 14.88M11.8636 14.8091L11.8427 14.8627M11.8636 14.8091L12.0379 14.9086L11.8427 14.8627M11.8636 14.8091L12.0966 14.8999L12.0899 14.9171M11.8427 14.8627L11.8245 14.94M11.8427 14.8627L12.0515 14.9441L11.8245 14.94M11.8245 14.94L11.8227 15.04M11.8245 14.94L12.0678 14.9972L11.8227 15.04M11.8227 15.04L11.8364 15.1182M11.8227 15.04L12.0346 15.0439L11.8364 15.1182M11.8364 15.1182L11.8636 15.1909M11.8364 15.1182L12.075 15.0765L11.8636 15.1909M11.8636 15.1909L11.8936 15.2464M11.8636 15.1909L12.0613 15.1168L11.8936 15.2464M11.8936 15.2464L11.94 15.3064M11.8936 15.2464L12.1135 15.1274L12.1039 15.1096M11.94 15.3064L14.2273 17.5945C14.3074 17.6751 14.4149 17.7227 14.5284 17.7279C14.6419 17.7332 14.7533 17.6957 14.8405 17.6229C14.9278 17.5502 14.9846 17.4473 14.9999 17.3347C15.0151 17.2221 14.9876 17.1079 14.9227 17.0145M11.94 15.3064L12.1378 15.1535L12.1281 15.1409M11.94 15.3064L12.1168 15.1296L12.1281 15.1409M14.9227 17.0145L14.87 16.9509M14.9227 17.0145L14.7174 17.1572C14.719 17.1595 14.7206 17.1619 14.7221 17.1643M14.9227 17.0145L14.7302 17.1741L14.7221 17.1643M14.87 16.9509L13.6236 15.7045H13.3736V15.4545L13.5504 15.2778L13.7272 15.4545H17.7273C17.8337 15.4546 17.9367 15.4173 18.0184 15.3492C18.1001 15.2811 18.1554 15.1865 18.1745 15.0818M14.87 16.9509L14.6775 17.1104L14.685 17.1194M14.87 16.9509L14.6932 17.1277L14.685 17.1194M18.1745 15.0818L18.1818 15M18.1745 15.0818L17.9286 15.0368C17.9281 15.0399 17.9274 15.0429 17.9268 15.0459M18.1745 15.0818L17.9255 15.0597L17.9268 15.0459M18.1818 15C18.1819 14.8936 18.1446 14.7906 18.0765 14.7089C18.0084 14.6271 17.9137 14.5719 17.8091 14.5527M18.1818 15L17.9328 14.9779L17.9316 14.991M18.1818 15L17.9318 14.9999C17.9318 14.997 17.9318 14.994 17.9316 14.991M17.8091 14.5527L17.7273 14.5455M17.8091 14.5527L17.7641 14.7986C17.7671 14.7992 17.7702 14.7998 17.7732 14.8005M17.8091 14.5527L17.787 14.8017L17.7732 14.8005M17.7273 14.5455L17.7051 14.7945L17.7162 14.7955M17.7273 14.5455V14.7955H17.7162M17.7162 14.7955L17.7732 14.8005M17.7162 14.7955H13.3736H12.7701L13.1969 14.3687L14.6932 12.8723L14.6933 12.8722C14.7272 12.8384 14.7481 12.7937 14.7525 12.746C14.7566 12.7012 14.7457 12.6564 14.7219 12.6185M17.7732 14.8005C17.8166 14.8105 17.8557 14.8345 17.8844 14.8689C17.9132 14.9034 17.9297 14.9463 17.9316 14.991M17.9316 14.991L17.9268 15.0459M17.9268 15.0459C17.9167 15.0894 17.8928 15.1285 17.8584 15.1571C17.8216 15.1878 17.7752 15.2046 17.7274 15.2045H17.7273H13.3736H12.7701L13.1969 15.6313L14.685 17.1194M14.685 17.1194L14.7221 17.1643M14.7221 17.1643C14.7479 17.2049 14.7586 17.2534 14.7521 17.3012C14.7453 17.3519 14.7197 17.3982 14.6804 17.4309C14.6411 17.4637 14.591 17.4805 14.5399 17.4782C14.4889 17.4758 14.4405 17.4544 14.4044 17.4182L14.4041 17.4178L12.1281 15.1409M12.1281 15.1409L12.1039 15.1096M12.1039 15.1096L12.0917 15.0871M12.1039 15.1096L12.0966 15.1002L12.0917 15.0871M12.0917 15.0871L12.0786 15.0522M12.0917 15.0871L12.0835 15.072L12.0822 15.0727L12.0786 15.0522M12.0786 15.0522L12.0731 15.0206M12.0786 15.0522L12.0728 15.0367L12.0731 15.0206M12.0731 15.0206L12.074 14.9713M12.0731 15.0206L12.069 14.997L12.0679 14.9972L12.074 14.9713M12.074 14.9713L12.082 14.9371M12.074 14.9713L12.0744 14.953L12.0757 14.9535L12.082 14.9371M12.082 14.9371L12.0899 14.9171M12.082 14.9371L12.0846 14.9263L12.0899 14.9171M12.0899 14.9171L12.111 14.88M12.111 14.88L12.1266 14.8606M12.111 14.88L12.1166 14.8702L12.1168 14.8704L12.1266 14.8606M12.1266 14.8606L14.395 12.5912M14.395 12.5912L14.4398 12.5548M14.4398 12.5548C14.4781 12.5303 14.5224 12.5195 14.5671 12.5235C14.6117 12.5275 14.6536 12.5459 14.6865 12.5759M14.6865 12.5759L14.7219 12.6185M18.7123 11.2877C17.7277 10.3031 16.3924 9.75 15 9.75C13.6076 9.75 12.2723 10.3031 11.2877 11.2877C10.3031 12.2723 9.75 13.6076 9.75 15C9.75 16.3924 10.3031 17.7277 11.2877 18.7123C12.2723 19.6969 13.6076 20.25 15 20.25C16.3924 20.25 17.7277 19.6969 18.7123 18.7123C19.6969 17.7277 20.25 16.3924 20.25 15C20.25 13.6076 19.6969 12.2723 18.7123 11.2877Z" fill="#2F2B5B" stroke="white" stroke-width="0.5"/>
</g>
<g clip-path="url(#clip1_3479_36999)">
<path d="M45 5.49996V3.69995C45 3.17874 45.1676 2.66867 45.4827 2.23132C45.7977 1.79396 46.2466 1.44802 46.7753 1.23524C47.304 1.02246 47.8897 0.951945 48.462 1.03221C49.0342 1.11246 49.5683 1.34007 50 1.68754C50.4317 1.34007 50.9658 1.11246 51.538 1.03221C52.1103 0.951945 52.696 1.02246 53.2247 1.23524C53.7534 1.44802 54.2023 1.79396 54.5173 2.23132C54.8324 2.66867 55 3.17874 55 3.69995V5.49996H56.5C56.8978 5.49996 57.2794 5.64219 57.5607 5.89536C57.842 6.14854 58 6.49192 58 6.84996V15.4C58.0003 16.0007 57.8334 16.5919 57.5146 17.1196C57.1958 17.6474 56.7353 18.0949 56.175 18.4213L55.63 18.3349C54.855 18.2125 54.056 17.8282 53.455 17.2801C52.855 16.732 52.5 16.0687 52.5 15.4V5.49996H53.5V3.69995C53.5 3.42206 53.4048 3.15093 53.2272 2.92357C53.0497 2.69622 52.7985 2.52371 52.508 2.42959C52.2175 2.33548 51.9018 2.32435 51.604 2.39772C51.3062 2.47109 51.0408 2.62539 50.844 2.83955C50.945 3.10955 51 3.39935 51 3.69995V15.4C51 16.5061 51.582 17.4934 52.387 18.2278C52.7116 18.5229 53.0742 18.7822 53.467 19H46C44.9391 19 43.9217 18.6207 43.1716 17.9456C42.4214 17.2704 42 16.3548 42 15.4V6.84996C42 6.49192 42.158 6.14854 42.4393 5.89536C42.7206 5.64219 43.1022 5.49996 43.5 5.49996H45ZM46.5 3.69995V5.49996H49.5V3.69995C49.5 3.34191 49.342 2.99853 49.0607 2.74535C48.7794 2.49218 48.3978 2.34994 48 2.34994C47.6022 2.34994 47.2206 2.49218 46.9393 2.74535C46.658 2.99853 46.5 3.34191 46.5 3.69995Z" fill="#2F2B5B"/>
<path d="M54.534 15.1768L54.7109 15L54.534 14.8232L53.0368 13.3269C53.0368 13.3268 53.0368 13.3268 53.0367 13.3268C53.0367 13.3268 53.0367 13.3268 53.0367 13.3268C52.9983 13.2883 52.9767 13.2362 52.9767 13.1818C52.9767 13.1274 52.9983 13.0752 53.0368 13.0368C53.0752 12.9983 53.1274 12.9767 53.1818 12.9767C53.2362 12.9767 53.2883 12.9983 53.3268 13.0367C53.3268 13.0367 53.3268 13.0368 53.3269 13.0368L54.8232 14.534L55 14.7109L55.1768 14.534L56.6731 13.0368C56.7116 12.9983 56.7638 12.9767 56.8182 12.9767C56.8726 12.9767 56.9248 12.9983 56.9632 13.0368C57.0017 13.0752 57.0233 13.1274 57.0233 13.1818C57.0233 13.2362 57.0017 13.2884 56.9632 13.3269L55.466 14.8232L55.2891 15L55.466 15.1768L56.9632 16.6731C56.9823 16.6922 56.9974 16.7148 57.0077 16.7397C57.018 16.7646 57.0233 16.7912 57.0233 16.8182C57.0233 16.8451 57.018 16.8718 57.0077 16.8967C56.9974 16.9216 56.9823 16.9442 56.9632 16.9632C56.9442 16.9823 56.9216 16.9974 56.8967 17.0077C56.8718 17.018 56.8451 17.0233 56.8182 17.0233C56.7912 17.0233 56.7646 17.018 56.7397 17.0077C56.7148 16.9974 56.6922 16.9823 56.6731 16.9632L55.1768 15.466L55 15.2891L54.8232 15.466L53.3269 16.9632C53.2884 17.0017 53.2362 17.0233 53.1818 17.0233C53.1274 17.0233 53.0752 17.0017 53.0368 16.9632C52.9983 16.9248 52.9767 16.8726 52.9767 16.8182C52.9767 16.7638 52.9983 16.7116 53.0368 16.6731L54.534 15.1768ZM58.7123 18.7123C59.6969 17.7277 60.25 16.3924 60.25 15C60.25 13.6076 59.6969 12.2723 58.7123 11.2877C57.7277 10.3031 56.3924 9.75 55 9.75C53.6076 9.75 52.2723 10.3031 51.2877 11.2877C50.3031 12.2723 49.75 13.6076 49.75 15C49.75 16.3924 50.3031 17.7277 51.2877 18.7123C52.2723 19.6969 53.6076 20.25 55 20.25C56.3924 20.25 57.7277 19.6969 58.7123 18.7123Z" fill="#2F2B5B" stroke="white" stroke-width="0.5"/>
</g>
<path d="M82.8889 10.8889H88.2222C88.458 10.8889 88.6841 10.7952 88.8508 10.6285C89.0175 10.4618 89.1111 10.2357 89.1111 10V2.88889C89.1111 2.65314 89.0175 2.42705 88.8508 2.26035C88.6841 2.09365 88.458 2 88.2222 2H82.8889C82.6531 2 82.427 2.09365 82.2603 2.26035C82.0937 2.42705 82 2.65314 82 2.88889V10C82 10.2357 82.0937 10.4618 82.2603 10.6285C82.427 10.7952 82.6531 10.8889 82.8889 10.8889ZM82 17.1111C82 17.3469 82.0937 17.573 82.2603 17.7397C82.427 17.9064 82.6531 18 82.8889 18H88.2222C88.458 18 88.6841 17.9064 88.8508 17.7397C89.0175 17.573 89.1111 17.3469 89.1111 17.1111V13.5556C89.1111 13.3198 89.0175 13.0937 88.8508 12.927C88.6841 12.7603 88.458 12.6667 88.2222 12.6667H82.8889C82.6531 12.6667 82.427 12.7603 82.2603 12.927C82.0937 13.0937 82 13.3198 82 13.5556V17.1111ZM90.8889 17.1111C90.8889 17.3469 90.9825 17.573 91.1492 17.7397C91.3159 17.9064 91.542 18 91.7778 18H97.1111C97.3469 18 97.573 17.9064 97.7397 17.7397C97.9064 17.573 98 17.3469 98 17.1111V10.8889C98 10.6531 97.9064 10.427 97.7397 10.2604C97.573 10.0937 97.3469 10 97.1111 10H91.7778C91.542 10 91.3159 10.0937 91.1492 10.2604C90.9825 10.427 90.8889 10.6531 90.8889 10.8889V17.1111ZM91.7778 8.22222H97.1111C97.3469 8.22222 97.573 8.12857 97.7397 7.96187C97.9064 7.79517 98 7.56908 98 7.33333V2.88889C98 2.65314 97.9064 2.42705 97.7397 2.26035C97.573 2.09365 97.3469 2 97.1111 2H91.7778C91.542 2 91.3159 2.09365 91.1492 2.26035C90.9825 2.42705 90.8889 2.65314 90.8889 2.88889V7.33333C90.8889 7.56908 90.9825 7.79517 91.1492 7.96187C91.3159 8.12857 91.542 8.22222 91.7778 8.22222Z" fill="#2F2B5B"/>
<path d="M125 5.49996V3.69995C125 3.17874 125.168 2.66867 125.483 2.23132C125.798 1.79396 126.247 1.44802 126.775 1.23524C127.304 1.02246 127.89 0.951945 128.462 1.03221C129.034 1.11246 129.568 1.34007 130 1.68754C130.432 1.34007 130.966 1.11246 131.538 1.03221C132.11 0.951945 132.696 1.02246 133.225 1.23524C133.753 1.44802 134.202 1.79396 134.517 2.23132C134.832 2.66867 135 3.17874 135 3.69995V5.49996H136.5C136.898 5.49996 137.279 5.64219 137.561 5.89536C137.842 6.14854 138 6.49192 138 6.84996V15.4C138 16.0007 137.833 16.5919 137.515 17.1196C137.196 17.6474 136.735 18.0949 136.175 18.4213L135.63 18.3349C134.855 18.2125 134.056 17.8282 133.455 17.2801C132.855 16.732 132.5 16.0687 132.5 15.4V5.49996H133.5V3.69995C133.5 3.42206 133.405 3.15093 133.227 2.92357C133.05 2.69622 132.799 2.52371 132.508 2.42959C132.217 2.33548 131.902 2.32435 131.604 2.39772C131.306 2.47109 131.041 2.62539 130.844 2.83955C130.945 3.10955 131 3.39935 131 3.69995V15.4C131 16.5061 131.582 17.4934 132.387 18.2278C132.712 18.5229 133.074 18.7822 133.467 19H126C124.939 19 123.922 18.6207 123.172 17.9456C122.421 17.2704 122 16.3548 122 15.4V6.84996C122 6.49192 122.158 6.14854 122.439 5.89536C122.721 5.64219 123.102 5.49996 123.5 5.49996H125ZM126.5 3.69995V5.49996H129.5V3.69995C129.5 3.34191 129.342 2.99853 129.061 2.74535C128.779 2.49218 128.398 2.34994 128 2.34994C127.602 2.34994 127.221 2.49218 126.939 2.74535C126.658 2.99853 126.5 3.34191 126.5 3.69995Z" fill="#2F2B5B"/>
<path d="M175.111 2C175.877 2 176.612 2.30436 177.154 2.84614C177.696 3.38791 178 4.12271 178 4.88889V15.1111C178 15.8773 177.696 16.6121 177.154 17.1539C176.612 17.6956 175.877 18 175.111 18H164.889C164.123 18 163.388 17.6956 162.846 17.1539C162.304 16.6121 162 15.8773 162 15.1111V4.88889C162 4.12271 162.304 3.38791 162.846 2.84614C163.388 2.30436 164.123 2 164.889 2H175.111ZM176.667 6.88889H163.333V15.1111C163.333 15.9698 164.03 16.6667 164.889 16.6667H175.111C175.524 16.6667 175.919 16.5028 176.211 16.2111C176.503 15.9193 176.667 15.5237 176.667 15.1111V6.88889ZM166.222 12.2222C166.517 12.2222 166.8 12.3393 167.008 12.5477C167.216 12.756 167.333 13.0386 167.333 13.3333C167.333 13.628 167.216 13.9106 167.008 14.119C166.8 14.3274 166.517 14.4444 166.222 14.4444C165.928 14.4444 165.645 14.3274 165.437 14.119C165.228 13.9106 165.111 13.628 165.111 13.3333C165.111 13.0386 165.228 12.756 165.437 12.5477C165.645 12.3393 165.928 12.2222 166.222 12.2222ZM170 12.2222C170.295 12.2222 170.577 12.3393 170.786 12.5477C170.994 12.756 171.111 13.0386 171.111 13.3333C171.111 13.628 170.994 13.9106 170.786 14.119C170.577 14.3274 170.295 14.4444 170 14.4444C169.705 14.4444 169.423 14.3274 169.214 14.119C169.006 13.9106 168.889 13.628 168.889 13.3333C168.889 13.0386 169.006 12.756 169.214 12.5477C169.423 12.3393 169.705 12.2222 170 12.2222ZM166.222 8.66667C166.517 8.66667 166.8 8.78373 167.008 8.9921C167.216 9.20048 167.333 9.48309 167.333 9.77778C167.333 10.0725 167.216 10.3551 167.008 10.5635C166.8 10.7718 166.517 10.8889 166.222 10.8889C165.928 10.8889 165.645 10.7718 165.437 10.5635C165.228 10.3551 165.111 10.0725 165.111 9.77778C165.111 9.48309 165.228 9.20048 165.437 8.9921C165.645 8.78373 165.928 8.66667 166.222 8.66667ZM170 8.66667C170.295 8.66667 170.577 8.78373 170.786 8.9921C170.994 9.20048 171.111 9.48309 171.111 9.77778C171.111 10.0725 170.994 10.3551 170.786 10.5635C170.577 10.7718 170.295 10.8889 170 10.8889C169.705 10.8889 169.423 10.7718 169.214 10.5635C169.006 10.3551 168.889 10.0725 168.889 9.77778C168.889 9.48309 169.006 9.20048 169.214 8.9921C169.423 8.78373 169.705 8.66667 170 8.66667ZM173.778 8.66667C174.072 8.66667 174.355 8.78373 174.563 8.9921C174.772 9.20048 174.889 9.48309 174.889 9.77778C174.889 10.0725 174.772 10.3551 174.563 10.5635C174.355 10.7718 174.072 10.8889 173.778 10.8889C173.483 10.8889 173.2 10.7718 172.992 10.5635C172.784 10.3551 172.667 10.0725 172.667 9.77778C172.667 9.48309 172.784 9.20048 172.992 8.9921C173.2 8.78373 173.483 8.66667 173.778 8.66667ZM175.111 3.33333H164.889C164.476 3.33333 164.081 3.49722 163.789 3.78895C163.497 4.08067 163.333 4.47633 163.333 4.88889V5.55556H176.667V4.88889C176.667 4.47633 176.503 4.08067 176.211 3.78895C175.919 3.49722 175.524 3.33333 175.111 3.33333Z" fill="#2F2B5B"/>
<path d="M206 8L210 12L214 8" stroke="#2F2B5B" stroke-width="2"/>
<path d="M242.5 0V2.5H240V4.16667H242.5V6.66667H244.167V4.16667H246.667V2.5H244.167V0H242.5ZM247.5 2.5V5H245V7.5H242.5V15.8333C242.5 16.2754 242.676 16.6993 242.988 17.0118C243.301 17.3244 243.725 17.5 244.167 17.5H255.833C256.758 17.5 257.5 16.7583 257.5 15.8333V15H250C249.558 15 249.134 14.8244 248.821 14.5118C248.509 14.1993 248.333 13.7754 248.333 13.3333V6.66667C248.333 6.22464 248.509 5.80072 248.821 5.48816C249.134 5.17559 249.558 5 250 5H257.5V4.16667C257.5 3.72464 257.324 3.30072 257.012 2.98816C256.699 2.67559 256.275 2.5 255.833 2.5H247.5ZM250 6.66667V13.3333H258.333V6.66667H250ZM253.333 8.75C254.025 8.75 254.583 9.30833 254.583 10C254.583 10.6917 254.025 11.25 253.333 11.25C252.642 11.25 252.083 10.6917 252.083 10C252.083 9.30833 252.642 8.75 253.333 8.75Z" fill="#2F2B5B"/>
<path d="M290 7.59091C290 7.31477 289.776 7.09091 289.5 7.09091H286.75C286.474 7.09091 286.25 7.31477 286.25 7.59091V10.6818C286.25 10.958 286.474 11.1818 286.75 11.1818H289.5C289.776 11.1818 290 10.958 290 10.6818V7.59091ZM290.75 13.9091C291.026 13.9091 291.25 14.1329 291.25 14.4091V14.7727C291.25 15.0489 291.026 15.2727 290.75 15.2727H285.5C285.224 15.2727 285 15.0489 285 14.7727V14.4091C285 14.1329 285.224 13.9091 285.5 13.9091H290.75ZM290.75 5.72727C291.026 5.72727 291.25 5.95113 291.25 6.22727V12.0455C291.25 12.3216 291.026 12.5455 290.75 12.5455H285.5C285.224 12.5455 285 12.3216 285 12.0455V6.22727C285 5.95113 285.224 5.72727 285.5 5.72727H290.75ZM297 13.9091C297.276 13.9091 297.5 14.1329 297.5 14.4091V14.7727C297.5 15.0489 297.276 15.2727 297 15.2727H293C292.724 15.2727 292.5 15.0489 292.5 14.7727V14.4091C292.5 14.1329 292.724 13.9091 293 13.9091H297ZM297 11.1818C297.276 11.1818 297.5 11.4057 297.5 11.6818V12.0455C297.5 12.3216 297.276 12.5455 297 12.5455H293C292.724 12.5455 292.5 12.3216 292.5 12.0455V11.6818C292.5 11.4057 292.724 11.1818 293 11.1818H297ZM297 8.45455C297.276 8.45455 297.5 8.6784 297.5 8.95455V9.31818C297.5 9.59432 297.276 9.81818 297 9.81818H293C292.724 9.81818 292.5 9.59432 292.5 9.31818V8.95455C292.5 8.6784 292.724 8.45455 293 8.45455H297ZM297 5.72727C297.276 5.72727 297.5 5.95113 297.5 6.22727V6.59091C297.5 6.86705 297.276 7.09091 297 7.09091H293C292.724 7.09091 292.5 6.86705 292.5 6.59091V6.22727C292.5 5.95113 292.724 5.72727 293 5.72727H297ZM282.5 15.9545V6.22727C282.5 5.95113 282.276 5.72727 282 5.72727H281.75C281.474 5.72727 281.25 5.95113 281.25 6.22727V15.9545C281.25 16.1392 281.312 16.299 281.436 16.4339C281.559 16.5689 281.706 16.6364 281.875 16.6364C282.044 16.6364 282.191 16.5689 282.314 16.4339C282.438 16.299 282.5 16.1392 282.5 15.9545ZM298.75 15.9545V4.86364C298.75 4.58749 298.526 4.36364 298.25 4.36364H284.25C283.974 4.36364 283.75 4.58749 283.75 4.86364V15.9545C283.75 16.2943 283.991 16.6364 284.331 16.6364H298.125C298.294 16.6364 298.441 16.5689 298.564 16.4339C298.688 16.299 298.75 16.1392 298.75 15.9545ZM299.5 3C299.776 3 300 3.22386 300 3.5V15.9545C300 16.5227 299.818 17.0057 299.453 17.4034C299.089 17.8011 298.646 18 298.125 18H281.875C281.354 18 280.911 17.8011 280.547 17.4034C280.182 17.0057 280 16.5227 280 15.9545V4.86364C280 4.58749 280.224 4.36364 280.5 4.36364H282C282.276 4.36364 282.5 4.13978 282.5 3.86364V3.5C282.5 3.22386 282.724 3 283 3H299.5Z" fill="#2F2B5B"/>
<path d="M329.941 19L329.721 16.3H329.5C327.412 16.3 325.64 15.5575 324.184 14.0725C322.728 12.5875 322 10.78 322 8.65C322 6.52 322.728 4.7125 324.184 3.2275C325.64 1.7425 327.412 1 329.5 1C330.544 1 331.518 1.1986 332.422 1.5958C333.327 1.9936 334.121 2.5411 334.806 3.2383C335.489 3.9361 336.026 4.7461 336.415 5.6683C336.805 6.5911 337 7.585 337 8.65C337 10.93 336.331 12.9736 334.993 14.7808C333.654 16.5886 331.971 17.995 329.941 19ZM329.478 13.5775C329.728 13.5775 329.941 13.4875 330.118 13.3075C330.294 13.1275 330.382 12.91 330.382 12.655C330.382 12.4 330.294 12.1825 330.118 12.0025C329.941 11.8225 329.728 11.7325 329.478 11.7325C329.228 11.7325 329.015 11.8225 328.838 12.0025C328.662 12.1825 328.574 12.4 328.574 12.655C328.574 12.91 328.662 13.1275 328.838 13.3075C329.015 13.4875 329.228 13.5775 329.478 13.5775ZM329.5 10.72C329.662 10.72 329.809 10.66 329.941 10.54C330.074 10.42 330.162 10.255 330.206 10.045C330.235 9.85 330.316 9.6736 330.449 9.5158C330.581 9.3586 330.809 9.115 331.132 8.785C331.397 8.515 331.618 8.2225 331.794 7.9075C331.971 7.5925 332.059 7.255 332.059 6.895C332.059 6.13 331.805 5.5561 331.298 5.1733C330.791 4.7911 330.191 4.6 329.5 4.6C328.985 4.6 328.541 4.72 328.166 4.96C327.791 5.2 327.485 5.5 327.25 5.86C327.147 6.025 327.129 6.1975 327.194 6.3775C327.261 6.5575 327.397 6.685 327.603 6.76C327.75 6.82 327.897 6.82 328.044 6.76C328.191 6.7 328.324 6.5875 328.441 6.4225C328.559 6.2575 328.702 6.1225 328.872 6.0175C329.041 5.9125 329.25 5.86 329.5 5.86C329.897 5.86 330.195 5.9725 330.394 6.1975C330.592 6.4225 330.691 6.67 330.691 6.94C330.691 7.195 330.618 7.4236 330.471 7.6258C330.324 7.8286 330.147 8.035 329.941 8.245C329.529 8.605 329.254 8.8975 329.114 9.1225C328.974 9.3475 328.89 9.655 328.86 10.045C328.846 10.225 328.901 10.3825 329.026 10.5175C329.151 10.6525 329.309 10.72 329.5 10.72Z" fill="#2F2B5B"/>
<path d="M373.728 4.50677L375.493 6.27093L373.728 4.50677ZM374.863 2.9526L370.091 7.7251C369.844 7.97135 369.676 8.28509 369.607 8.62677L369.167 10.8334L371.373 10.3918C371.715 10.3234 372.028 10.1559 372.275 9.90927L377.047 5.13677C377.191 4.99335 377.305 4.82309 377.382 4.63571C377.46 4.44833 377.5 4.2475 377.5 4.04468C377.5 3.84186 377.46 3.64103 377.382 3.45365C377.305 3.26627 377.191 3.09601 377.047 2.9526C376.904 2.80919 376.734 2.69542 376.546 2.61781C376.359 2.54019 376.158 2.50024 375.955 2.50024C375.752 2.50024 375.552 2.54019 375.364 2.61781C375.177 2.69542 375.007 2.80919 374.863 2.9526V2.9526Z" stroke="#2F2B5B" stroke-width="1.66667" stroke-linecap="round" stroke-linejoin="round"/>
<mask id="path-17-inside-1_3479_36999" fill="white">
<path d="M375.833 12.5001V15.0001C375.833 15.4421 375.658 15.866 375.345 16.1786C375.033 16.4912 374.609 16.6667 374.167 16.6667H365C364.558 16.6667 364.134 16.4912 363.821 16.1786C363.509 15.866 363.333 15.4421 363.333 15.0001V5.83341C363.333 5.39139 363.509 4.96746 363.821 4.6549C364.134 4.34234 364.558 4.16675 365 4.16675H367.5"/>
</mask>
<path d="M377.5 12.5001V10.8334H374.167V12.5001H377.5ZM363.333 15.0001H361.667H363.333ZM365 4.16675V2.50008V4.16675ZM367.5 5.83341H369.167V2.50008H367.5V5.83341ZM374.167 12.5001V15.0001H377.5V12.5001H374.167ZM374.167 15.0001L374.167 15.0001L376.524 17.3571C377.149 16.732 377.5 15.8841 377.5 15.0001H374.167ZM374.167 15.0001L374.167 15.0001V18.3334C375.051 18.3334 375.898 17.9822 376.524 17.3571L374.167 15.0001ZM374.167 15.0001H365V18.3334H374.167V15.0001ZM365 15.0001L365 15.0001L362.643 17.3571C363.268 17.9822 364.116 18.3334 365 18.3334V15.0001ZM365 15.0001L365 15.0001H361.667C361.667 15.8841 362.018 16.732 362.643 17.3571L365 15.0001ZM365 15.0001V5.83341H361.667V15.0001H365ZM365 5.83341L365 5.83341L362.643 3.47639C362.018 4.10151 361.667 4.94936 361.667 5.83341H365ZM365 5.83341L365 5.83341V2.50008C364.116 2.50008 363.268 2.85127 362.643 3.47639L365 5.83341ZM365 5.83341H367.5V2.50008H365V5.83341Z" fill="#2F2B5B" mask="url(#path-17-inside-1_3479_36999)"/>
<path d="M402 16H418M402 4H418H402ZM402 10H418H402Z" stroke="#2F2B5B" stroke-width="2" stroke-linecap="round" stroke-linejoin="round"/>
<path d="M448.011 0C448.18 0 448.342 0.0651536 448.462 0.181128C448.581 0.297102 448.648 0.454396 448.648 0.618408V3.09204C448.648 3.25605 448.581 3.41335 448.462 3.52932C448.342 3.64529 448.18 3.71045 448.011 3.71045C447.842 3.71045 447.68 3.64529 447.56 3.52932C447.441 3.41335 447.373 3.25605 447.373 3.09204V0.618408C447.373 0.454396 447.441 0.297102 447.56 0.181128C447.68 0.0651536 447.842 0 448.011 0ZM443.052 1.99127C443.111 1.93368 443.182 1.88799 443.259 1.85682C443.337 1.82564 443.42 1.80959 443.504 1.80959C443.587 1.80959 443.67 1.82564 443.748 1.85682C443.825 1.88799 443.896 1.93368 443.955 1.99127L445.757 3.74137C445.818 3.79841 445.867 3.86665 445.9 3.9421C445.933 4.01755 445.951 4.0987 445.952 4.18081C445.952 4.26292 445.936 4.34435 445.904 4.42035C445.872 4.49635 445.825 4.5654 445.765 4.62346C445.705 4.68153 445.634 4.72744 445.556 4.75854C445.477 4.78963 445.393 4.80528 445.309 4.80457C445.224 4.80385 445.141 4.78679 445.063 4.75438C444.985 4.72197 444.915 4.67486 444.856 4.6158L443.054 2.86694C442.934 2.75097 442.867 2.5937 442.867 2.42972C442.867 2.26574 442.934 2.10848 443.054 1.99251L443.052 1.99127ZM452.969 1.99127C453.029 2.04872 453.076 2.11696 453.108 2.19209C453.14 2.26722 453.157 2.34776 453.157 2.42911C453.157 2.51045 453.14 2.59099 453.108 2.66612C453.076 2.74125 453.029 2.80949 452.969 2.86694L451.164 4.6158C451.106 4.67486 451.035 4.72197 450.958 4.75438C450.88 4.78679 450.796 4.80385 450.712 4.80457C450.627 4.80528 450.543 4.78963 450.465 4.75854C450.386 4.72744 450.315 4.68153 450.255 4.62346C450.195 4.5654 450.148 4.49635 450.116 4.42035C450.084 4.34435 450.068 4.26292 450.069 4.18081C450.069 4.0987 450.087 4.01755 450.12 3.9421C450.154 3.86665 450.202 3.79841 450.263 3.74137L452.066 1.99251C452.185 1.87658 452.347 1.81145 452.516 1.81145C452.685 1.81145 452.847 1.87658 452.967 1.99251L452.969 1.99127ZM441 6.80249C441 6.63847 441.067 6.48118 441.187 6.36521C441.306 6.24923 441.468 6.18408 441.637 6.18408H444.187C444.356 6.18408 444.518 6.24923 444.637 6.36521C444.757 6.48118 444.824 6.63847 444.824 6.80249C444.824 6.9665 444.757 7.12379 444.637 7.23977C444.518 7.35574 444.356 7.42089 444.187 7.42089H441.637C441.468 7.42089 441.306 7.35574 441.187 7.23977C441.067 7.12379 441 6.9665 441 6.80249ZM449.464 6.55512C449.278 6.40478 449.052 6.30895 448.812 6.27885C448.571 6.24874 448.327 6.2856 448.108 6.38512C447.889 6.48463 447.703 6.64269 447.573 6.84079C447.443 7.0389 447.374 7.26885 447.373 7.50376V18.76C447.373 19.9028 448.833 20.4347 449.608 19.5751L452.191 16.7106C452.37 16.5119 452.592 16.3527 452.84 16.2437C453.088 16.1347 453.357 16.0784 453.63 16.0786H457.723C458.915 16.0786 459.455 14.6315 458.539 13.8919L449.464 6.55389V6.55512ZM448.648 18.7625V7.50376L457.723 14.8418H453.63C453.175 14.8417 452.726 14.9359 452.312 15.1181C451.899 15.3003 451.53 15.5662 451.231 15.898L448.648 18.7613V18.7625Z" fill="#2F2B5B"/>
<path d="M490 5C489.407 5 488.827 5.17595 488.333 5.50559C487.84 5.83524 487.455 6.30377 487.228 6.85195C487.001 7.40013 486.942 8.00333 487.058 8.58527C487.173 9.16721 487.459 9.70176 487.879 10.1213C488.298 10.5409 488.833 10.8266 489.415 10.9424C489.997 11.0581 490.6 10.9987 491.148 10.7716C491.696 10.5446 492.165 10.1601 492.494 9.66671C492.824 9.17336 493 8.59334 493 8C493 7.20435 492.684 6.44129 492.121 5.87868C491.559 5.31607 490.796 5 490 5Z" fill="#2F2B5B"/>
<path d="M490 1C488.22 1 486.48 1.52784 485 2.51677C483.52 3.50571 482.366 4.91131 481.685 6.55585C481.004 8.20038 480.826 10.01 481.173 11.7558C481.52 13.5016 482.377 15.1053 483.636 16.364C484.895 17.6226 486.498 18.4798 488.244 18.8271C489.99 19.1743 491.8 18.9961 493.444 18.3149C495.089 17.6337 496.494 16.4802 497.483 15.0001C498.472 13.5201 499 11.78 499 10C498.997 7.61389 498.048 5.32628 496.361 3.63905C494.674 1.95181 492.386 1.00272 490 1ZM495.138 15.7381C495.125 14.8949 494.781 14.0905 494.181 13.4982C493.581 12.9058 492.772 12.573 491.929 12.5714H488.071C487.228 12.573 486.419 12.9058 485.819 13.4982C485.219 14.0905 484.875 14.8949 484.862 15.7381C483.697 14.6972 482.874 13.3267 482.505 11.8081C482.135 10.2896 482.236 8.69458 482.793 7.23434C483.35 5.7741 484.337 4.5175 485.624 3.63094C486.911 2.74437 488.437 2.26966 490 2.26966C491.563 2.26966 493.089 2.74437 494.376 3.63094C495.663 4.5175 496.651 5.7741 497.208 7.23434C497.765 8.69458 497.865 10.2896 497.496 11.8081C497.126 13.3267 496.304 14.6972 495.138 15.7381H495.138Z" fill="#2F2B5B"/>
<path d="M530.535 5.83325C530.201 5.83325 529.889 5.66615 529.703 5.38795L528.63 3.77855C528.445 3.50035 528.133 3.33325 527.798 3.33325H522.667C522.114 3.33325 521.667 3.78097 521.667 4.33325V15.6666C521.667 16.2189 522.114 16.6666 522.667 16.6666H537.333C537.886 16.6666 538.333 16.2189 538.333 15.6666V6.83325C538.333 6.28097 537.886 5.83325 537.333 5.83325H530.535Z" fill="#2F2B5B"/>
<path d="M572.5 13.3334H567.5C567 13.3334 566.667 13.0001 566.667 12.5001V7.50008C566.667 7.00008 567 6.66675 567.5 6.66675H572.5C573 6.66675 573.333 7.00008 573.333 7.50008V12.5001C573.333 13.0001 573 13.3334 572.5 13.3334Z" fill="#2F2B5B"/>
<defs>
<clipPath id="clip0_3479_36999">
<rect width="20" height="20" fill="white"/>
</clipPath>
<clipPath id="clip1_3479_36999">
<rect width="20" height="20" fill="white" transform="translate(40)"/>
</clipPath>
</defs>
</svg>
