<svg width="20" height="20" viewBox="0 0 20 20" fill="none" xmlns="http://www.w3.org/2000/svg">
<path d="M10 7.59091C10 7.31477 9.77614 7.09091 9.5 7.09091H6.75C6.47386 7.09091 6.25 7.31477 6.25 7.59091V10.6818C6.25 10.958 6.47386 11.1818 6.75 11.1818H9.5C9.77614 11.1818 10 10.958 10 10.6818V7.59091ZM10.75 13.9091C11.0261 13.9091 11.25 14.1329 11.25 14.4091V14.7727C11.25 15.0489 11.0261 15.2727 10.75 15.2727H5.5C5.22386 15.2727 5 15.0489 5 14.7727V14.4091C5 14.1329 5.22386 13.9091 5.5 13.9091H10.75ZM10.75 5.72727C11.0261 5.72727 11.25 5.95113 11.25 6.22727V12.0455C11.25 12.3216 11.0261 12.5455 10.75 12.5455H5.5C5.22386 12.5455 5 12.3216 5 12.0455V6.22727C5 5.95113 5.22386 5.72727 5.5 5.72727H10.75ZM17 13.9091C17.2761 13.9091 17.5 14.1329 17.5 14.4091V14.7727C17.5 15.0489 17.2761 15.2727 17 15.2727H13C12.7239 15.2727 12.5 15.0489 12.5 14.7727V14.4091C12.5 14.1329 12.7239 13.9091 13 13.9091H17ZM17 11.1818C17.2761 11.1818 17.5 11.4057 17.5 11.6818V12.0455C17.5 12.3216 17.2761 12.5455 17 12.5455H13C12.7239 12.5455 12.5 12.3216 12.5 12.0455V11.6818C12.5 11.4057 12.7239 11.1818 13 11.1818H17ZM17 8.45455C17.2761 8.45455 17.5 8.6784 17.5 8.95455V9.31818C17.5 9.59432 17.2761 9.81818 17 9.81818H13C12.7239 9.81818 12.5 9.59432 12.5 9.31818V8.95455C12.5 8.6784 12.7239 8.45455 13 8.45455H17ZM17 5.72727C17.2761 5.72727 17.5 5.95113 17.5 6.22727V6.59091C17.5 6.86705 17.2761 7.09091 17 7.09091H13C12.7239 7.09091 12.5 6.86705 12.5 6.59091V6.22727C12.5 5.95113 12.7239 5.72727 13 5.72727H17ZM2.5 15.9545V6.22727C2.5 5.95113 2.27614 5.72727 2 5.72727H1.75C1.47386 5.72727 1.25 5.95113 1.25 6.22727V15.9545C1.25 16.1392 1.31185 16.299 1.43555 16.4339C1.55924 16.5689 1.70573 16.6364 1.875 16.6364C2.04427 16.6364 2.19076 16.5689 2.31445 16.4339C2.43815 16.299 2.5 16.1392 2.5 15.9545ZM18.75 15.9545V4.86364C18.75 4.58749 18.5261 4.36364 18.25 4.36364H4.25C3.97386 4.36364 3.75 4.58749 3.75 4.86364V15.9545V15.9545C3.75 16.2943 3.99125 16.6364 4.331 16.6364H18.125C18.2943 16.6364 18.4408 16.5689 18.5645 16.4339C18.6882 16.299 18.75 16.1392 18.75 15.9545ZM19.5 3C19.7761 3 20 3.22386 20 3.5V15.9545C20 16.5227 19.8177 17.0057 19.4531 17.4034C19.0885 17.8011 18.6458 18 18.125 18H1.875C1.35417 18 0.911458 17.8011 0.546875 17.4034C0.182292 17.0057 0 16.5227 0 15.9545V4.86364C0 4.58749 0.223858 4.36364 0.5 4.36364H2C2.27614 4.36364 2.5 4.13978 2.5 3.86364V3.5C2.5 3.22386 2.72386 3 3 3H19.5Z" fill="#2F2B5B"/>
</svg>
