<svg width="20" height="20" viewBox="0 0 20 20" fill="none" xmlns="http://www.w3.org/2000/svg">
<path d="M9.94118 19L9.72059 16.3H9.5C7.41176 16.3 5.63971 15.5575 4.18382 14.0725C2.72794 12.5875 2 10.78 2 8.65C2 6.52 2.72794 4.7125 4.18382 3.2275C5.63971 1.7425 7.41176 1 9.5 1C10.5441 1 11.5182 1.1986 12.4224 1.5958C13.3271 1.9936 14.1215 2.5411 14.8056 3.2383C15.4891 3.9361 16.0256 4.7461 16.415 5.6683C16.805 6.5911 17 7.585 17 8.65C17 10.93 16.3309 12.9736 14.9926 14.7808C13.6544 16.5886 11.9706 17.995 9.94118 19ZM9.47794 13.5775C9.72794 13.5775 9.94118 13.4875 10.1176 13.3075C10.2941 13.1275 10.3824 12.91 10.3824 12.655C10.3824 12.4 10.2941 12.1825 10.1176 12.0025C9.94118 11.8225 9.72794 11.7325 9.47794 11.7325C9.22794 11.7325 9.01471 11.8225 8.83824 12.0025C8.66176 12.1825 8.57353 12.4 8.57353 12.655C8.57353 12.91 8.66176 13.1275 8.83824 13.3075C9.01471 13.4875 9.22794 13.5775 9.47794 13.5775ZM9.5 10.72C9.66176 10.72 9.80882 10.66 9.94118 10.54C10.0735 10.42 10.1618 10.255 10.2059 10.045C10.2353 9.85 10.3162 9.6736 10.4485 9.5158C10.5809 9.3586 10.8088 9.115 11.1324 8.785C11.3971 8.515 11.6176 8.2225 11.7941 7.9075C11.9706 7.5925 12.0588 7.255 12.0588 6.895C12.0588 6.13 11.8053 5.5561 11.2982 5.1733C10.7906 4.7911 10.1912 4.6 9.5 4.6C8.98529 4.6 8.54059 4.72 8.16588 4.96C7.79059 5.2 7.48529 5.5 7.25 5.86C7.14706 6.025 7.12853 6.1975 7.19441 6.3775C7.26088 6.5575 7.39706 6.685 7.60294 6.76C7.75 6.82 7.89706 6.82 8.04412 6.76C8.19118 6.7 8.32353 6.5875 8.44118 6.4225C8.55882 6.2575 8.70235 6.1225 8.87176 6.0175C9.04059 5.9125 9.25 5.86 9.5 5.86C9.89706 5.86 10.195 5.9725 10.3938 6.1975C10.5921 6.4225 10.6912 6.67 10.6912 6.94C10.6912 7.195 10.6176 7.4236 10.4706 7.6258C10.3235 7.8286 10.1471 8.035 9.94118 8.245C9.52941 8.605 9.25353 8.8975 9.11353 9.1225C8.97412 9.3475 8.88971 9.655 8.86029 10.045C8.84559 10.225 8.90088 10.3825 9.02618 10.5175C9.15088 10.6525 9.30882 10.72 9.5 10.72V10.72Z" fill="#2F2B5B"/>
</svg>
