<svg width="20" height="20" viewBox="0 0 20 20" fill="none" xmlns="http://www.w3.org/2000/svg">
<path d="M2.5 0V2.5H0V4.16667H2.5V6.66667H4.16667V4.16667H6.66667V2.5H4.16667V0H2.5ZM7.5 2.5V5H5V7.5H2.5V15.8333C2.5 16.2754 2.67559 16.6993 2.98816 17.0118C3.30072 17.3244 3.72464 17.5 4.16667 17.5H15.8333C16.7583 17.5 17.5 16.7583 17.5 15.8333V15H10C9.55797 15 9.13405 14.8244 8.82149 14.5118C8.50893 14.1993 8.33333 13.7754 8.33333 13.3333V6.66667C8.33333 6.22464 8.50893 5.80072 8.82149 5.48816C9.13405 5.17559 9.55797 5 10 5H17.5V4.16667C17.5 3.72464 17.3244 3.30072 17.0118 2.98816C16.6993 2.67559 16.2754 2.5 15.8333 2.5H7.5ZM10 6.66667V13.3333H18.3333V6.66667H10ZM13.3333 8.75C14.025 8.75 14.5833 9.30833 14.5833 10C14.5833 10.6917 14.025 11.25 13.3333 11.25C12.6417 11.25 12.0833 10.6917 12.0833 10C12.0833 9.30833 12.6417 8.75 13.3333 8.75Z" fill="#2F2B5B"/>
</svg>
