<svg width="20" height="20" viewBox="0 0 20 20" fill="none" xmlns="http://www.w3.org/2000/svg">
<path d="M15.1111 2C15.8773 2 16.6121 2.30436 17.1539 2.84614C17.6956 3.38791 18 4.12271 18 4.88889V15.1111C18 15.8773 17.6956 16.6121 17.1539 17.1539C16.6121 17.6956 15.8773 18 15.1111 18H4.88889C4.12271 18 3.38791 17.6956 2.84614 17.1539C2.30436 16.6121 2 15.8773 2 15.1111V4.88889C2 4.12271 2.30436 3.38791 2.84614 2.84614C3.38791 2.30436 4.12271 2 4.88889 2H15.1111ZM16.6667 6.88889H3.33333V15.1111C3.33333 15.9698 4.03022 16.6667 4.88889 16.6667H15.1111C15.5237 16.6667 15.9193 16.5028 16.2111 16.2111C16.5028 15.9193 16.6667 15.5237 16.6667 15.1111V6.88889ZM6.22222 12.2222C6.51691 12.2222 6.79952 12.3393 7.0079 12.5477C7.21627 12.756 7.33333 13.0386 7.33333 13.3333C7.33333 13.628 7.21627 13.9106 7.0079 14.119C6.79952 14.3274 6.51691 14.4444 6.22222 14.4444C5.92754 14.4444 5.64492 14.3274 5.43655 14.119C5.22817 13.9106 5.11111 13.628 5.11111 13.3333C5.11111 13.0386 5.22817 12.756 5.43655 12.5477C5.64492 12.3393 5.92754 12.2222 6.22222 12.2222V12.2222ZM10 12.2222C10.2947 12.2222 10.5773 12.3393 10.7857 12.5477C10.994 12.756 11.1111 13.0386 11.1111 13.3333C11.1111 13.628 10.994 13.9106 10.7857 14.119C10.5773 14.3274 10.2947 14.4444 10 14.4444C9.70532 14.4444 9.4227 14.3274 9.21433 14.119C9.00595 13.9106 8.88889 13.628 8.88889 13.3333C8.88889 13.0386 9.00595 12.756 9.21433 12.5477C9.4227 12.3393 9.70532 12.2222 10 12.2222V12.2222ZM6.22222 8.66667C6.51691 8.66667 6.79952 8.78373 7.0079 8.9921C7.21627 9.20048 7.33333 9.48309 7.33333 9.77778C7.33333 10.0725 7.21627 10.3551 7.0079 10.5635C6.79952 10.7718 6.51691 10.8889 6.22222 10.8889C5.92754 10.8889 5.64492 10.7718 5.43655 10.5635C5.22817 10.3551 5.11111 10.0725 5.11111 9.77778C5.11111 9.48309 5.22817 9.20048 5.43655 8.9921C5.64492 8.78373 5.92754 8.66667 6.22222 8.66667V8.66667ZM10 8.66667C10.2947 8.66667 10.5773 8.78373 10.7857 8.9921C10.994 9.20048 11.1111 9.48309 11.1111 9.77778C11.1111 10.0725 10.994 10.3551 10.7857 10.5635C10.5773 10.7718 10.2947 10.8889 10 10.8889C9.70532 10.8889 9.4227 10.7718 9.21433 10.5635C9.00595 10.3551 8.88889 10.0725 8.88889 9.77778C8.88889 9.48309 9.00595 9.20048 9.21433 8.9921C9.4227 8.78373 9.70532 8.66667 10 8.66667V8.66667ZM13.7778 8.66667C14.0725 8.66667 14.3551 8.78373 14.5635 8.9921C14.7718 9.20048 14.8889 9.48309 14.8889 9.77778C14.8889 10.0725 14.7718 10.3551 14.5635 10.5635C14.3551 10.7718 14.0725 10.8889 13.7778 10.8889C13.4831 10.8889 13.2005 10.7718 12.9921 10.5635C12.7837 10.3551 12.6667 10.0725 12.6667 9.77778C12.6667 9.48309 12.7837 9.20048 12.9921 8.9921C13.2005 8.78373 13.4831 8.66667 13.7778 8.66667ZM15.1111 3.33333H4.88889C4.47633 3.33333 4.08067 3.49722 3.78895 3.78895C3.49722 4.08067 3.33333 4.47633 3.33333 4.88889V5.55556H16.6667V4.88889C16.6667 4.47633 16.5028 4.08067 16.2111 3.78895C15.9193 3.49722 15.5237 3.33333 15.1111 3.33333Z" fill="#2F2B5B"/>
</svg>
