<svg width="20" height="20" viewBox="0 0 20 20" fill="none" xmlns="http://www.w3.org/2000/svg">
<g clip-path="url(#clip0_3479_36592)">
<path d="M5 5.49996V3.69995C5.00001 3.17874 5.16765 2.66867 5.48266 2.23132C5.79768 1.79396 6.24662 1.44802 6.77529 1.23524C7.30395 1.02246 7.88975 0.951945 8.46196 1.03221C9.03418 1.11246 9.56835 1.34007 10 1.68754C10.4317 1.34007 10.9658 1.11246 11.538 1.03221C12.1103 0.951945 12.696 1.02246 13.2247 1.23524C13.7534 1.44802 14.2023 1.79396 14.5173 2.23132C14.8324 2.66867 15 3.17874 15 3.69995V5.49996H16.5C16.8978 5.49996 17.2794 5.64219 17.5607 5.89536C17.842 6.14854 18 6.49192 18 6.84996V15.4C18.0003 16.0007 17.8334 16.5919 17.5146 17.1196C17.1958 17.6474 16.7353 18.0949 16.175 18.4213L15.63 18.3349C14.855 18.2125 14.056 17.8282 13.455 17.2801C12.855 16.732 12.5 16.0687 12.5 15.4V5.49996H13.5V3.69995C13.5 3.42206 13.4048 3.15093 13.2272 2.92357C13.0497 2.69622 12.7985 2.52371 12.508 2.42959C12.2175 2.33548 11.9018 2.32435 11.604 2.39772C11.3062 2.47109 11.0408 2.62539 10.844 2.83955C10.945 3.10955 11 3.39935 11 3.69995V15.4C11 16.5061 11.582 17.4934 12.387 18.2278C12.7116 18.5229 13.0742 18.7822 13.467 19H6C4.93913 19 3.92172 18.6207 3.17157 17.9456C2.42143 17.2704 2 16.3548 2 15.4V6.84996C2 6.49192 2.15804 6.14854 2.43934 5.89536C2.72064 5.64219 3.10218 5.49996 3.5 5.49996H5ZM6.5 3.69995V5.49996H9.5V3.69995C9.5 3.34191 9.34196 2.99853 9.06066 2.74535C8.77936 2.49218 8.39782 2.34994 8 2.34994C7.60218 2.34994 7.22064 2.49218 6.93934 2.74535C6.65804 2.99853 6.5 3.34191 6.5 3.69995V3.69995Z" fill="#2F2B5B"/>
<path d="M14.534 15.1768L14.7109 15L14.534 14.8232L13.0368 13.3269C13.0368 13.3268 13.0368 13.3268 13.0367 13.3268C13.0367 13.3268 13.0367 13.3268 13.0367 13.3268C12.9983 13.2883 12.9767 13.2362 12.9767 13.1818C12.9767 13.1274 12.9983 13.0752 13.0368 13.0368C13.0752 12.9983 13.1274 12.9767 13.1818 12.9767C13.2362 12.9767 13.2883 12.9983 13.3268 13.0367C13.3268 13.0367 13.3268 13.0368 13.3269 13.0368L14.8232 14.534L15 14.7109L15.1768 14.534L16.6731 13.0368C16.6732 13.0368 16.6732 13.0367 16.6732 13.0367C16.7117 12.9983 16.7638 12.9767 16.8182 12.9767C16.8726 12.9767 16.9248 12.9983 16.9632 13.0368C17.0017 13.0752 17.0233 13.1274 17.0233 13.1818C17.0233 13.2362 17.0017 13.2884 16.9632 13.3269L15.466 14.8232L15.2891 15L15.466 15.1768L16.9632 16.6731C16.9632 16.6732 16.9632 16.6732 16.9633 16.6732C16.9633 16.6732 16.9633 16.6732 16.9633 16.6732C16.9823 16.6922 16.9974 16.7148 17.0077 16.7397C17.018 16.7646 17.0233 16.7912 17.0233 16.8182C17.0233 16.8451 17.018 16.8718 17.0077 16.8967C16.9974 16.9216 16.9823 16.9442 16.9632 16.9632C16.9442 16.9823 16.9216 16.9974 16.8967 17.0077C16.8718 17.018 16.8451 17.0233 16.8182 17.0233C16.7912 17.0233 16.7646 17.018 16.7397 17.0077C16.7148 16.9974 16.6922 16.9823 16.6732 16.9633C16.6732 16.9633 16.6732 16.9632 16.6731 16.9632L15.1768 15.466L15 15.2891L14.8232 15.466L13.3269 16.9632C13.2884 17.0017 13.2362 17.0233 13.1818 17.0233C13.1274 17.0233 13.0752 17.0017 13.0368 16.9632C12.9983 16.9248 12.9767 16.8726 12.9767 16.8182C12.9767 16.7638 12.9983 16.7117 13.0367 16.6732C13.0367 16.6732 13.0368 16.6732 13.0368 16.6731L14.534 15.1768ZM18.7123 18.7123C19.6969 17.7277 20.25 16.3924 20.25 15C20.25 13.6076 19.6969 12.2723 18.7123 11.2877C17.7277 10.3031 16.3924 9.75 15 9.75C13.6076 9.75 12.2723 10.3031 11.2877 11.2877C10.3031 12.2723 9.75 13.6076 9.75 15C9.75 16.3924 10.3031 17.7277 11.2877 18.7123C12.2723 19.6969 13.6076 20.25 15 20.25C16.3924 20.25 17.7277 19.6969 18.7123 18.7123Z" fill="#2F2B5B" stroke="white" stroke-width="0.5"/>
</g>
<defs>
<clipPath id="clip0_3479_36592">
<rect width="20" height="20" fill="white"/>
</clipPath>
</defs>
</svg>
