<svg width="20" height="20" viewBox="0 0 20 20" fill="none" xmlns="http://www.w3.org/2000/svg">
<path d="M5 5.49996V3.69995C5.00001 3.17874 5.16765 2.66867 5.48266 2.23132C5.79768 1.79396 6.24662 1.44802 6.77529 1.23524C7.30395 1.02246 7.88975 0.951945 8.46196 1.03221C9.03418 1.11246 9.56835 1.34007 10 1.68754C10.4317 1.34007 10.9658 1.11246 11.538 1.03221C12.1103 0.951945 12.696 1.02246 13.2247 1.23524C13.7534 1.44802 14.2023 1.79396 14.5173 2.23132C14.8324 2.66867 15 3.17874 15 3.69995V5.49996H16.5C16.8978 5.49996 17.2794 5.64219 17.5607 5.89536C17.842 6.14854 18 6.49192 18 6.84996V15.4C18.0003 16.0007 17.8334 16.5919 17.5146 17.1196C17.1958 17.6474 16.7353 18.0949 16.175 18.4213L15.63 18.3349C14.855 18.2125 14.056 17.8282 13.455 17.2801C12.855 16.732 12.5 16.0687 12.5 15.4V5.49996H13.5V3.69995C13.5 3.42206 13.4048 3.15093 13.2272 2.92357C13.0497 2.69622 12.7985 2.52371 12.508 2.42959C12.2175 2.33548 11.9018 2.32435 11.604 2.39772C11.3062 2.47109 11.0408 2.62539 10.844 2.83955C10.945 3.10955 11 3.39935 11 3.69995V15.4C11 16.5061 11.582 17.4934 12.387 18.2278C12.7116 18.5229 13.0742 18.7822 13.467 19H6C4.93913 19 3.92172 18.6207 3.17157 17.9456C2.42143 17.2704 2 16.3548 2 15.4V6.84996C2 6.49192 2.15804 6.14854 2.43934 5.89536C2.72064 5.64219 3.10218 5.49996 3.5 5.49996H5ZM6.5 3.69995V5.49996H9.5V3.69995C9.5 3.34191 9.34196 2.99853 9.06066 2.74535C8.77936 2.49218 8.39782 2.34994 8 2.34994C7.60218 2.34994 7.22064 2.49218 6.93934 2.74535C6.65804 2.99853 6.5 3.34191 6.5 3.69995V3.69995Z" fill="#2F2B5B"/>
</svg>
